<?xml version="1.0" standalone="no"?>
<!DOCTYPE svg PUBLIC "-//W3C//DTD SVG 20010904//EN"
 "http://www.w3.org/TR/2001/REC-SVG-20010904/DTD/svg10.dtd">
<svg version="1.0" xmlns="http://www.w3.org/2000/svg"
 width="460.000000pt" height="460.000000pt" viewBox="0 0 460.000000 460.000000"
 preserveAspectRatio="xMidYMid meet">
<metadata>
Created by potrace 1.14, written by Peter Selinger 2001-2017
</metadata>
<g transform="translate(0.000000,460.000000) scale(0.100000,-0.100000)"
fill="#000000" stroke="none">
<path d="M2608 4593 c13 -5 17 -53 4 -53 -12 0 -36 -52 -33 -73 3 -22 -22 -32
-48 -18 -18 10 -21 8 -27 -24 -5 -29 -9 -33 -20 -24 -8 6 -14 18 -14 25 0 8
-6 14 -14 14 -8 0 -16 7 -20 15 -5 15 -18 15 -78 -1 -17 -5 -19 -38 -5 -61 4
-7 -1 -18 -11 -25 -9 -7 -18 -24 -19 -38 -2 -61 -9 -90 -21 -90 -6 0 -11 -3
-11 -7 1 -5 0 -10 -1 -13 -1 -3 -4 -18 -5 -35 -2 -16 -4 -30 -5 -30 -1 0 -4
-9 -5 -20 -5 -43 -26 -105 -40 -119 -16 -15 -20 -67 -7 -80 4 -4 14 -31 23
-59 13 -44 19 -52 40 -53 13 -1 26 -2 29 -4 3 -1 30 -4 60 -6 37 -3 60 -11 73
-24 10 -11 24 -20 32 -20 8 0 15 -3 15 -7 0 -5 7 -17 15 -27 15 -20 15 -20 31
0 8 10 13 14 10 7 -9 -17 3 -40 23 -46 11 -3 24 -26 36 -63 10 -32 21 -63 26
-69 4 -5 9 -14 10 -20 2 -5 18 -26 37 -46 18 -20 39 -45 46 -54 7 -10 18 -15
24 -11 10 6 17 -11 14 -36 -1 -3 5 -9 13 -12 10 -4 15 1 15 17 0 17 2 19 10 7
7 -12 12 -12 29 4 27 24 20 62 -29 157 -11 20 -21 47 -24 60 -3 13 -12 49 -20
79 -13 47 -105 445 -109 475 -1 6 8 9 21 8 13 -2 22 3 22 12 0 7 5 17 10 20
17 11 104 14 121 4 10 -5 24 -3 38 7 12 9 29 13 38 10 9 -4 23 0 33 9 19 17
105 31 95 15 -3 -6 2 -13 12 -17 10 -4 20 -9 23 -12 12 -15 50 -30 50 -21 0 5
11 12 24 16 13 3 26 14 29 25 7 25 31 24 57 -3 30 -33 25 -54 -6 -24 -12 13
-19 13 -47 1 -17 -7 -31 -16 -29 -19 4 -10 -38 -47 -51 -45 -7 1 -23 -1 -37
-5 -14 -4 -39 -2 -55 4 -21 8 -31 8 -33 1 -2 -6 -13 -11 -24 -11 -14 0 -18 -5
-14 -16 3 -9 9 -27 12 -40 3 -13 10 -24 14 -24 4 0 15 -17 23 -37 32 -79 73
-100 57 -29 -6 27 -5 33 6 29 8 -3 14 1 14 8 0 11 3 11 10 -1 5 -8 10 -10 10
-3 0 12 10 12 49 -1 18 -6 26 -4 33 8 8 14 12 15 38 1 38 -20 37 -20 44 20 7
38 -4 68 -38 100 -27 25 -30 41 -10 49 11 4 15 2 11 -8 -4 -9 -1 -13 6 -10 7
2 17 -9 24 -26 11 -29 33 -42 33 -19 0 5 5 7 10 4 6 -4 9 -1 8 7 -2 7 3 13 10
12 6 -1 21 -2 31 -2 25 -2 37 -38 20 -60 -7 -9 -9 -14 -4 -9 4 4 23 -30 41
-75 30 -79 34 -112 11 -89 -18 18 -26 13 -33 -23 -5 -30 -2 -39 24 -64 17 -17
36 -32 43 -34 6 -2 12 -19 13 -38 1 -19 10 -48 22 -65 29 -41 33 -57 21 -80
-18 -32 -16 -43 7 -50 l21 -8 -22 -4 c-24 -5 -21 -33 4 -33 8 0 11 5 8 10 -4
6 8 10 29 10 20 0 36 -4 36 -10 0 -5 -7 -7 -16 -3 -10 4 -22 0 -28 -9 -7 -9
-27 -18 -46 -20 -19 -1 -38 -7 -42 -13 -5 -6 -8 -5 -8 3 0 7 -9 23 -20 34 -16
18 -23 19 -33 9 -10 -10 -8 -11 6 -6 10 4 17 2 17 -4 0 -6 -4 -11 -9 -11 -5 0
-12 -8 -14 -17 -3 -13 -5 -14 -6 -3 -1 20 -38 43 -46 30 -4 -6 -1 -9 6 -8 7 2
13 -1 14 -7 0 -5 6 -20 13 -31 6 -12 8 -24 5 -28 -3 -3 2 -6 11 -6 25 0 76
-38 76 -56 0 -8 -4 -13 -9 -9 -5 3 -12 1 -15 -4 -3 -5 3 -11 14 -14 10 -3 21
0 24 7 2 6 5 3 5 -6 1 -10 6 -18 11 -18 6 0 10 -8 11 -17 0 -16 2 -15 10 2 8
18 9 18 8 -5 -2 -44 1 -50 21 -50 11 0 20 -7 20 -15 0 -8 4 -15 8 -15 12 0 33
-50 27 -61 -12 -18 -42 -8 -54 17 -7 17 -17 24 -26 20 -10 -3 -15 1 -15 11 0
12 -3 14 -11 6 -17 -17 -47 -4 -53 23 -4 13 -15 28 -26 34 -24 13 -26 46 -3
58 14 9 14 10 -4 16 -12 4 -24 14 -27 22 -5 12 -2 15 9 10 10 -3 3 13 -17 42
-18 26 -33 50 -34 55 -1 4 -3 10 -4 15 -1 4 -3 16 -4 27 -1 14 -8 20 -26 21
-57 2 -70 5 -67 15 1 6 -4 14 -10 16 -7 3 -13 1 -13 -4 0 -5 -18 -7 -40 -5
-29 3 -47 -1 -61 -13 -16 -15 -23 -16 -45 -6 -15 6 -29 9 -32 6 -3 -2 -11 0
-18 6 -8 6 -25 8 -38 5 -45 -11 -46 -89 -5 -265 31 -129 54 -162 119 -176 19
-4 40 -15 46 -23 8 -11 25 -15 53 -14 22 2 41 -1 41 -7 0 -5 9 -7 21 -4 21 6
69 -14 81 -33 14 -22 178 -2 178 22 0 8 8 14 18 14 23 -1 140 -28 125 -29 -22
-2 -15 -38 8 -44 14 -4 18 -10 13 -18 -5 -9 -2 -10 9 -6 17 6 67 -34 67 -55 0
-7 18 -30 39 -50 22 -20 45 -47 51 -58 6 -12 14 -19 17 -16 4 3 11 -4 17 -16
6 -13 21 -27 33 -33 12 -6 36 -26 54 -43 18 -18 39 -30 45 -28 7 3 15 -7 19
-21 3 -14 13 -32 20 -40 8 -8 15 -24 15 -36 0 -12 10 -38 23 -57 15 -23 22
-46 20 -68 -1 -18 0 -31 5 -29 4 3 8 -9 8 -26 1 -18 4 -43 7 -57 3 -14 6 -35
6 -47 1 -14 7 -23 16 -23 9 0 20 -10 25 -23 8 -21 9 -20 16 11 4 21 10 29 14
21 5 -8 10 -5 15 10 6 21 20 28 27 14 5 -11 95 -42 102 -36 10 10 7 53 -4 53
-5 0 -10 16 -10 35 0 27 3 33 15 29 10 -4 13 -2 10 8 -6 16 29 60 63 77 17 9
31 9 56 1 28 -9 33 -15 32 -38 -1 -15 -4 -32 -8 -38 -16 -25 -18 -91 -5 -137
9 -29 11 -49 5 -53 -5 -3 -4 -14 4 -27 16 -25 8 -83 -10 -79 -7 1 -12 -6 -12
-17 0 -27 -20 -40 -57 -35 -18 2 -33 -1 -33 -6 0 -6 7 -10 15 -10 9 0 12 -6 9
-15 -4 -10 0 -15 10 -15 9 0 21 -12 26 -26 13 -33 13 -34 -5 -34 -27 0 -4 -66
26 -75 13 -4 19 -16 19 -36 0 -18 4 -28 10 -24 6 3 10 1 10 -4 0 -6 -4 -11 -8
-11 -5 0 -9 -7 -9 -15 0 -8 4 -12 8 -9 10 6 39 -24 38 -39 0 -9 -2 -8 -6 1 -9
23 -19 12 -18 -20 0 -18 -7 -39 -15 -46 -8 -8 -9 -11 -2 -7 7 4 12 0 12 -10 0
-9 -4 -14 -9 -11 -10 7 -8 -9 4 -38 6 -14 2 -23 -16 -37 -24 -18 -24 -19 -2
-19 12 0 24 -4 27 -8 8 -13 68 -5 77 10 9 13 3 19 -38 44 -15 10 -12 12 19 10
l37 -1 1 1227 c0 1200 0 1228 -19 1228 -11 0 -21 -9 -25 -22 -5 -19 -8 -21
-16 -8 -9 13 -10 13 -10 0 -1 -12 -3 -11 -11 3 -11 19 -39 23 -55 7 -5 -5 -31
-13 -58 -16 -47 -7 -48 -7 -35 15 8 11 22 21 31 21 10 0 18 3 19 8 3 26 9 46
17 51 15 10 10 41 -6 41 -11 0 -9 5 6 19 12 10 19 21 15 25 -3 3 -2 6 4 6 6 0
13 9 16 21 4 16 10 19 24 12 15 -8 51 -9 93 -4 6 0 10 19 10 41 0 33 -4 42
-25 52 -27 12 -34 48 -9 48 8 0 12 5 9 10 -3 6 0 10 7 10 10 0 10 2 -1 9 -12
8 -12 13 2 35 10 14 17 45 17 71 l0 45 -1002 -1 c-552 0 -997 -3 -990 -6z
m862 -479 c0 -8 5 -12 10 -9 6 4 10 -6 10 -22 0 -20 -3 -24 -9 -14 -5 7 -13
11 -18 8 -5 -3 -9 9 -9 28 1 31 16 40 16 9z m60 -34 c0 -4 -7 -10 -15 -14 -10
-4 -15 1 -15 14 0 13 5 18 15 14 8 -4 15 -10 15 -14z m830 -89 c0 -4 9 -17 20
-28 16 -18 17 -22 4 -27 -8 -3 -13 -10 -9 -15 3 -5 0 -13 -6 -16 -7 -5 -3 -12
10 -22 12 -8 21 -18 21 -22 0 -13 -47 -30 -69 -26 -11 2 -23 0 -26 -6 -4 -5
-21 -9 -40 -9 -19 0 -36 -4 -40 -9 -3 -6 -22 -5 -48 3 -23 7 -48 11 -55 8 -18
-6 -15 12 9 42 11 14 17 26 14 26 -19 0 20 30 46 35 18 4 35 17 41 30 8 17 17
22 34 19 15 -3 24 0 24 8 0 8 14 13 35 14 19 1 35 -2 35 -5z m-900 -51 c11
-11 17 -20 13 -20 -4 0 -2 -5 4 -11 8 -8 17 -8 32 0 17 10 20 9 15 -4 -4 -8
-2 -15 4 -15 6 0 12 5 14 12 2 6 9 8 16 4 6 -3 9 -13 6 -21 -4 -10 -12 -11
-36 -3 -20 7 -33 7 -40 0 -14 -14 -53 26 -53 55 -1 28 0 28 25 3z m-896 -26
c-6 -3 -8 -22 -4 -53 4 -29 2 -55 -4 -64 -8 -10 -11 6 -9 62 1 42 2 78 2 81 1
2 7 -2 14 -9 8 -9 8 -15 1 -17z m1026 -44 c0 -5 -2 -10 -4 -10 -3 0 -8 5 -11
10 -3 6 -1 10 4 10 6 0 11 -4 11 -10z m200 -150 c0 -5 -5 -10 -11 -10 -5 0 -7
5 -4 10 3 6 8 10 11 10 2 0 4 -4 4 -10z m22 -35 c-2 -14 -8 -22 -13 -19 -13 8
-11 32 4 37 6 3 13 6 13 6 1 1 -1 -10 -4 -24z m177 9 c3 -5 20 -11 36 -12 17
-2 35 -10 41 -18 6 -8 16 -14 22 -14 14 0 32 -33 32 -59 0 -12 5 -21 10 -21
20 0 4 -25 -24 -38 -39 -17 -106 -17 -106 0 0 4 -9 8 -21 8 -13 0 -18 4 -13
13 6 9 4 9 -8 -1 -11 -9 -18 -10 -23 -2 -3 6 -11 7 -17 4 -6 -4 -8 -2 -5 3 4
6 -2 18 -13 28 -11 10 -20 26 -20 37 0 12 -8 18 -22 19 -13 0 -17 3 -10 6 6 2
12 9 12 15 0 24 40 45 81 43 23 -1 44 -6 48 -11z m-419 -164 c0 -5 -6 -10 -14
-10 -8 0 -18 5 -21 10 -3 6 3 10 14 10 12 0 21 -4 21 -10z m60 -410 c0 -5 -4
-10 -10 -10 -5 0 -10 5 -10 10 0 6 5 10 10 10 6 0 10 -4 10 -10z m945 -1358
c-6 -7 -34 11 -29 19 3 5 11 3 19 -4 7 -6 12 -13 10 -15z m-11 -150 c2 -4 -4
-8 -14 -9 -11 -1 -22 2 -25 8 -4 5 3 9 14 9 11 0 22 -4 25 -8z"/>
<path d="M1560 4580 c0 -6 7 -10 15 -10 8 0 15 2 15 4 0 2 -7 6 -15 10 -8 3
-15 1 -15 -4z"/>
<path d="M2213 4563 c-15 -5 -17 -23 -4 -23 5 0 11 7 15 15 3 8 4 15 3 14 -1
0 -8 -3 -14 -6z"/>
<path d="M2040 4520 c0 -13 20 -13 40 0 12 8 9 10 -12 10 -16 0 -28 -4 -28
-10z"/>
<path d="M520 4495 c-7 -8 -11 -15 -9 -16 29 -8 89 -6 89 2 0 6 -9 8 -20 4
-13 -4 -22 -1 -26 9 -8 20 -18 20 -34 1z"/>
<path d="M870 4500 c0 -5 5 -10 11 -10 5 0 7 5 4 10 -3 6 -8 10 -11 10 -2 0
-4 -4 -4 -10z"/>
<path d="M80 4496 c0 -2 7 -7 16 -10 8 -3 12 -2 9 4 -6 10 -25 14 -25 6z"/>
<path d="M646 4486 c3 -8 12 -12 21 -9 12 5 12 7 1 14 -20 13 -28 11 -22 -5z"/>
<path d="M370 4480 c0 -5 7 -10 15 -10 8 0 15 5 15 10 0 6 -7 10 -15 10 -8 0
-15 -4 -15 -10z"/>
<path d="M1970 4459 c0 -5 5 -7 10 -4 6 3 10 8 10 11 0 2 -4 4 -10 4 -5 0 -10
-5 -10 -11z"/>
<path d="M507 4430 c-3 -11 -1 -20 4 -20 5 0 9 5 9 10 0 6 9 10 21 10 11 0 17
5 14 10 -11 17 -42 11 -48 -10z"/>
<path d="M900 4422 c0 -5 11 -12 25 -15 16 -3 24 0 22 7 -4 14 -47 21 -47 8z"/>
<path d="M444 4379 c-16 -17 -16 -22 -4 -29 23 -15 30 -12 40 16 13 33 13 34
-3 34 -8 0 -22 -9 -33 -21z"/>
<path d="M1810 4385 c-7 -8 -8 -15 -2 -15 5 0 15 7 22 15 7 8 8 15 2 15 -5 0
-15 -7 -22 -15z"/>
<path d="M1990 4390 c-9 -6 -10 -10 -3 -10 6 0 15 5 18 10 8 12 4 12 -15 0z"/>
<path d="M1559 4378 c23 -6 37 -6 44 1 8 8 -2 11 -33 10 l-45 -1 34 -10z"/>
<path d="M1726 4381 c-11 -17 18 -30 37 -16 16 11 16 13 1 19 -22 8 -32 8 -38
-3z"/>
<path d="M830 4360 c20 -13 43 -13 35 0 -3 6 -16 10 -28 10 -18 0 -19 -2 -7
-10z"/>
<path d="M1630 4355 c0 -8 5 -15 10 -15 6 0 10 7 10 15 0 8 -4 15 -10 15 -5 0
-10 -7 -10 -15z"/>
<path d="M1550 4351 c0 -5 -8 -7 -17 -5 -10 2 -24 0 -32 -5 -15 -10 -8 -41 9
-41 6 0 8 6 4 13 -6 9 -5 9 7 0 13 -10 20 -9 38 8 12 11 19 24 16 30 -8 12
-25 12 -25 0z"/>
<path d="M690 4325 c0 -9 6 -12 15 -9 8 4 15 10 15 15 0 5 -7 9 -15 9 -8 0
-15 -7 -15 -15z"/>
<path d="M1845 4320 c-3 -6 1 -7 9 -4 18 7 21 14 7 14 -6 0 -13 -4 -16 -10z"/>
<path d="M380 4305 c0 -8 9 -15 19 -15 26 0 35 16 15 24 -25 10 -34 7 -34 -9z"/>
<path d="M1155 4290 c-3 -5 1 -10 10 -10 9 0 13 5 10 10 -3 6 -8 10 -10 10 -2
0 -7 -4 -10 -10z"/>
<path d="M1408 4293 c6 -2 18 -2 25 0 6 3 1 5 -13 5 -14 0 -19 -2 -12 -5z"/>
<path d="M825 4240 c3 -5 17 -10 31 -10 13 0 24 5 24 10 0 6 -14 10 -31 10
-17 0 -28 -4 -24 -10z"/>
<path d="M1046 4242 c-3 -5 8 -6 25 -4 16 2 29 6 29 8 0 8 -49 4 -54 -4z"/>
<path d="M748 4213 c7 -3 16 -2 19 1 4 3 -2 6 -13 5 -11 0 -14 -3 -6 -6z"/>
<path d="M1300 4204 c0 -9 5 -14 12 -12 18 6 21 28 4 28 -9 0 -16 -7 -16 -16z"/>
<path d="M728 4198 c5 -5 16 -8 23 -6 8 3 3 7 -10 11 -17 4 -21 3 -13 -5z"/>
<path d="M2878 4203 c7 -3 16 -2 19 1 4 3 -2 6 -13 5 -11 0 -14 -3 -6 -6z"/>
<path d="M2872 4178 c-16 -16 -15 -27 1 -24 24 6 47 18 47 27 0 13 -34 11 -48
-3z"/>
<path d="M665 4150 c-4 -6 6 -10 22 -10 22 0 25 2 13 10 -19 12 -27 12 -35 0z"/>
<path d="M950 4153 c-32 -6 -51 -23 -24 -23 30 0 64 11 64 21 0 5 -3 8 -7 8
-5 -1 -19 -4 -33 -6z"/>
<path d="M4570 4125 c-15 -8 -19 -14 -10 -14 18 -1 46 16 40 23 -3 2 -16 -2
-30 -9z"/>
<path d="M844 4088 c-3 -4 2 -8 10 -8 8 0 17 4 20 8 3 5 -2 9 -10 9 -8 0 -17
-4 -20 -9z"/>
<path d="M170 4071 c0 -6 5 -13 10 -16 6 -3 10 1 10 9 0 9 -4 16 -10 16 -5 0
-10 -4 -10 -9z"/>
<path d="M379 4053 c-3 -19 3 -181 7 -208 3 -16 7 -52 10 -80 6 -59 24 -112
71 -215 20 -41 39 -84 44 -95 5 -11 16 -51 25 -90 8 -38 26 -92 38 -120 17
-36 25 -76 29 -145 7 -111 28 -178 77 -246 16 -21 45 -23 146 -8 26 4 44 2 48
-5 4 -6 0 -11 -11 -11 -16 -1 -16 -2 -2 -13 9 -7 14 -18 11 -26 -3 -9 0 -11 8
-6 10 6 12 2 8 -13 -4 -12 -2 -20 3 -16 5 3 9 -2 9 -10 0 -9 4 -16 9 -16 5 0
14 -12 20 -27 14 -39 44 -87 59 -96 10 -7 10 -12 2 -22 -9 -11 -3 -18 34 -36
25 -11 45 -24 44 -27 -3 -28 6 -53 27 -76 13 -14 22 -26 19 -26 -9 0 33 -50
60 -71 22 -17 76 -28 210 -41 11 -1 37 -19 58 -39 45 -42 52 -84 16 -99 -13
-5 -19 -9 -14 -9 6 -1 -8 -14 -31 -31 -32 -24 -54 -31 -109 -35 -38 -3 -83 -8
-100 -11 -30 -4 -84 12 -84 26 0 3 -24 6 -52 6 -101 2 -119 4 -113 14 6 9 -8
14 -27 11 -5 0 -8 4 -8 10 0 7 -12 9 -30 7 -17 -3 -33 -1 -36 4 -3 4 -1 8 4 8
5 0 12 9 15 21 5 18 1 20 -26 17 -25 -2 -32 -7 -30 -23 1 -11 -3 -23 -10 -27
-8 -5 -7 -11 2 -22 11 -13 11 -16 0 -16 -10 0 -10 -3 -1 -12 8 -8 6 -18 -10
-40 -15 -22 -18 -32 -9 -41 8 -8 11 -6 12 9 1 15 3 14 8 -6 4 -14 4 -30 -1
-37 -15 -19 2 -35 29 -28 32 8 59 -1 61 -20 1 -8 3 -22 4 -30 1 -11 5 -12 12
-5 24 24 53 5 61 -40 3 -19 33 -50 47 -50 10 0 18 -6 18 -12 0 -9 4 -8 10 2 7
11 10 11 10 2 0 -7 4 -11 9 -8 5 4 7 -3 4 -14 -3 -11 -12 -20 -19 -20 -8 0
-14 -4 -14 -9 0 -5 -3 -18 -7 -28 -6 -15 -4 -16 9 -5 17 14 90 14 82 0 -3 -4
1 -8 8 -8 7 0 24 -6 38 -13 21 -10 33 -9 73 4 26 8 44 19 40 24 -5 4 10 4 31
1 22 -4 41 -3 45 2 3 6 12 3 21 -6 13 -14 12 -15 -3 -9 -9 3 -17 2 -17 -2 0
-5 6 -11 13 -14 9 -3 9 -8 1 -17 -7 -6 -10 -19 -7 -29 5 -19 51 -21 115 -3 28
8 38 7 42 -3 3 -9 -2 -11 -17 -8 -18 4 -19 3 -7 -6 8 -6 11 -11 5 -11 -5 0 -3
-5 5 -11 11 -8 12 -12 3 -16 -10 -3 -9 -8 2 -19 10 -10 26 -13 56 -8 40 7 42
6 36 -15 -6 -25 22 -41 73 -41 31 0 161 64 197 97 7 6 23 15 36 19 12 4 24 10
27 13 12 15 66 45 78 43 6 -2 12 5 12 14 0 13 3 14 15 4 14 -12 20 -7 16 14
-1 5 6 5 15 2 10 -4 21 -2 24 5 6 8 9 8 14 0 4 -6 2 -11 -3 -11 -6 0 -11 -4
-11 -10 0 -5 9 -10 21 -10 11 0 17 5 14 10 -3 6 -1 10 4 10 6 0 11 7 11 15 0
8 6 12 14 9 11 -4 13 0 9 15 -3 12 -1 21 6 21 6 0 11 -5 11 -11 0 -7 10 -20
22 -31 l23 -20 -29 8 c-21 5 -27 4 -22 -5 9 -14 56 -15 56 -1 0 6 10 2 22 -10
24 -23 27 -23 47 -11 8 5 10 14 6 22 -5 10 -5 11 3 4 5 -5 12 -19 14 -30 2
-11 10 -19 17 -17 7 1 19 -2 27 -9 7 -6 18 -8 24 -4 5 3 10 -1 10 -10 0 -9 13
-24 30 -33 16 -9 30 -24 30 -32 0 -13 1 -13 10 0 8 13 11 11 16 -7 4 -14 11
-20 22 -16 9 4 13 2 9 -4 -12 -19 68 -80 127 -97 31 -9 62 -14 68 -10 8 5 9 2
5 -9 -3 -10 -2 -17 3 -17 6 0 10 -5 10 -11 0 -6 -7 -8 -16 -5 -12 4 -15 2 -10
-9 3 -9 0 -15 -10 -15 -8 0 -17 -7 -20 -15 -4 -8 -12 -15 -19 -15 -8 0 -27
-13 -43 -30 -17 -16 -33 -30 -36 -30 -8 0 -46 -38 -46 -46 0 -3 7 -4 15 0 18
7 20 -5 3 -22 -10 -10 -10 -15 2 -22 8 -5 18 -6 22 -4 4 3 8 -3 9 -13 0 -16 1
-16 9 2 7 17 9 17 9 3 1 -11 9 -18 21 -18 13 0 18 5 14 15 -5 11 -2 13 10 9 9
-3 16 -10 16 -15 0 -5 9 -9 19 -9 11 0 22 -4 25 -9 3 -5 19 -7 36 -5 16 2 30
-1 30 -7 0 -32 83 -45 102 -15 5 7 8 7 8 -3 0 -11 3 -11 15 -1 8 7 15 9 15 6
0 -4 10 0 22 8 12 9 32 16 45 16 12 0 25 5 28 11 4 6 13 8 21 5 8 -3 14 -2 14
3 0 5 12 8 26 8 15 0 30 7 35 14 7 12 11 12 18 1 6 -10 16 -6 40 18 23 24 38
31 56 28 16 -4 35 4 59 24 20 17 49 30 65 30 20 1 28 5 24 14 -4 10 3 14 22
14 21 0 25 3 17 13 -12 14 16 55 36 51 7 -1 8 0 2 3 -17 8 -11 43 8 43 15 0
15 2 2 11 -11 8 -12 12 -2 16 6 2 12 8 12 13 0 5 5 21 12 37 6 15 10 32 9 36
-1 5 3 6 8 3 13 -8 24 11 27 47 1 18 -1 25 -6 17 -5 -8 -12 -1 -21 23 -9 27
-20 38 -41 43 -24 5 -27 8 -17 20 6 8 9 17 5 21 -3 3 -6 1 -6 -5 0 -20 -24 -8
-37 18 -9 19 -12 21 -13 7 0 -10 -4 -16 -9 -12 -6 3 -16 -1 -23 -8 -11 -12
-15 -12 -25 2 -11 14 -12 13 -13 -7 0 -18 -4 -22 -18 -18 -13 5 -18 0 -19 -16
-2 -18 0 -20 7 -8 8 13 10 13 10 -1 0 -9 -14 -22 -31 -29 -19 -8 -26 -16 -19
-20 8 -5 6 -9 -6 -14 -15 -6 -16 -9 -4 -16 8 -5 11 -12 7 -17 -4 -4 -17 -2
-27 5 -11 7 -20 8 -20 3 0 -5 6 -11 13 -14 8 -3 6 -10 -8 -21 -16 -13 -17 -15
-2 -10 21 7 23 -11 2 -20 -8 -3 -15 -11 -15 -18 0 -10 2 -10 9 1 5 7 14 10 20
7 14 -9 15 -46 1 -47 -5 -1 -14 -3 -20 -4 -5 -1 -28 -3 -50 -4 -36 -1 -40 -4
-40 -26 0 -29 -16 -32 -48 -9 -21 14 -22 14 -22 -7 0 -21 -1 -22 -13 -5 -11
14 -29 18 -102 18 -50 1 -103 -1 -120 -4 -16 -3 -24 -3 -16 0 11 3 12 5 1 12
-11 7 -11 11 -1 24 8 9 9 16 3 16 -5 0 3 14 19 31 27 29 40 57 20 45 -5 -4 -7
2 -4 13 5 18 -30 61 -50 61 -5 0 -4 6 2 13 14 18 2 30 -16 16 -19 -16 -17 5 3
36 9 14 13 25 9 25 -4 0 -1 7 6 16 8 9 14 30 15 46 1 17 7 34 15 40 11 7 11
11 2 15 -7 2 -13 12 -13 20 0 9 -6 13 -14 10 -8 -3 -13 1 -12 11 1 10 -6 16
-16 16 -10 -1 -18 4 -18 12 0 10 -14 14 -47 14 -35 0 -44 3 -33 10 8 5 11 10
5 11 -5 0 -1 4 10 9 18 8 17 9 -7 9 -27 1 -27 2 -10 21 9 12 17 26 17 33 0 7
6 12 14 12 8 0 17 7 20 17 3 9 20 32 38 51 17 19 29 38 25 42 -4 5 3 5 16 2
14 -3 22 -1 22 8 0 7 10 12 25 11 24 -1 29 -7 26 -33 -1 -7 3 -13 9 -13 6 0 9
4 5 9 -3 5 -1 12 4 15 5 3 11 -1 15 -9 3 -8 12 -15 21 -15 9 0 35 -9 57 -20
69 -33 170 -22 212 24 50 55 57 65 62 92 7 41 -17 57 -57 37 -41 -20 -61 -11
-53 24 8 29 73 123 85 123 9 0 31 57 35 88 2 15 -2 22 -9 19 -7 -3 -11 -10 -9
-16 1 -6 -9 -16 -22 -21 -13 -5 -30 -17 -37 -27 -21 -27 -65 -43 -100 -36 -21
4 -34 1 -39 -7 -5 -8 -21 -15 -37 -16 -15 -1 -36 -5 -45 -9 -14 -5 -18 -2 -18
13 0 11 4 22 9 24 16 5 20 52 5 66 -8 7 -14 9 -14 5 0 -17 -39 -11 -43 5 -4
15 -5 15 -6 0 -1 -19 -21 -26 -21 -8 0 6 -6 10 -12 10 -7 1 -24 10 -37 20 -19
16 -21 23 -11 35 8 9 10 28 5 53 -5 33 -2 44 22 73 15 19 34 38 41 42 19 13
33 54 37 117 2 30 5 60 6 65 8 29 -15 128 -35 153 -13 15 -28 37 -35 50 -6 12
-16 22 -22 22 -5 0 -33 -24 -62 -54 -28 -30 -61 -56 -72 -58 -15 -2 -22 -15
-29 -51 -6 -31 -14 -47 -25 -47 -11 0 -10 -3 5 -15 17 -13 17 -14 2 -15 -12 0
-15 -5 -11 -16 4 -12 2 -15 -8 -12 -8 3 -14 12 -14 22 0 9 -7 21 -15 26 -12 8
-11 10 5 11 11 0 14 3 8 6 -7 2 -13 16 -13 29 0 13 -4 24 -9 24 -6 0 -23 28
-40 63 -21 45 -31 84 -36 140 -6 74 -21 112 -65 164 -6 7 -9 16 -9 20 1 4 -1
16 -6 26 -6 14 -10 16 -16 6 -6 -11 -9 -10 -14 3 -6 15 -10 15 -41 -4 -19 -11
-31 -24 -28 -29 3 -5 0 -9 -5 -9 -6 0 -11 -6 -11 -14 0 -8 -8 -17 -17 -19 -17
-4 -17 -5 0 -6 25 -2 21 -18 -8 -25 -14 -4 -24 -11 -22 -17 1 -6 -8 -15 -21
-20 -19 -7 -24 -5 -32 16 -5 14 -8 48 -5 75 5 49 4 50 -28 59 -17 5 -24 10
-14 10 10 1 15 6 12 11 -4 6 -11 8 -16 5 -5 -4 -9 -1 -9 4 0 15 -83 14 -98 -1
-9 -9 -12 -6 -12 14 0 21 -6 26 -36 31 -20 3 -45 13 -54 22 -17 16 -19 15 -30
-5 -6 -12 -17 -19 -25 -16 -7 2 -33 -15 -57 -38 -25 -23 -52 -42 -61 -40 -10
1 -20 -3 -24 -10 -5 -7 -26 -16 -48 -19 -22 -4 -45 -13 -51 -22 -14 -19 -38
-19 -58 1 -18 17 -22 39 -6 29 6 -3 10 1 10 9 0 9 4 16 10 16 5 0 27 18 49 41
26 28 40 37 44 27 4 -9 8 -10 14 -2 4 6 18 15 31 18 14 5 21 14 20 24 -2 11 3
16 14 14 29 -5 78 53 77 91 0 26 -2 29 -9 12 -7 -18 -8 -19 -15 -2 -4 9 -14
17 -22 17 -8 0 -11 5 -8 10 3 6 2 10 -3 10 -5 0 -8 11 -7 24 4 32 -5 43 -40
52 -17 4 -27 3 -23 -1 4 -4 -2 -16 -13 -28 -10 -11 -19 -27 -19 -34 0 -20 -29
-16 -30 5 -2 43 -7 78 -14 94 -4 9 -5 22 -1 28 4 6 -4 10 -19 10 -18 0 -26 -5
-26 -17 0 -15 -1 -15 -13 2 -14 19 -16 17 -27 -33 -3 -14 -33 -42 -46 -42 -7
0 -16 -10 -19 -22 -4 -13 -16 -30 -28 -39 -20 -16 -19 -16 11 -21 17 -2 29 -1
26 3 -2 4 0 10 5 13 5 4 11 -2 13 -11 7 -32 -4 -61 -25 -71 -12 -6 -16 -11
-10 -11 9 -1 10 -8 3 -27 -13 -33 -13 -34 5 -34 9 0 21 12 27 26 10 21 9 27
-3 36 -12 8 -11 9 2 5 9 -3 23 3 32 14 9 10 23 16 32 13 10 -4 15 0 15 13 0
24 28 83 40 83 5 0 11 -13 15 -30 4 -16 11 -30 16 -30 17 0 9 -19 -10 -25 -10
-3 -21 -15 -24 -25 -4 -14 -10 -18 -24 -14 -16 6 -16 5 2 -9 12 -10 15 -16 7
-17 -7 0 -11 -4 -7 -9 3 -5 1 -12 -5 -16 -6 -4 -8 -11 -5 -16 4 -5 -3 -9 -13
-9 -11 0 -22 -9 -25 -20 -3 -11 -12 -20 -21 -20 -19 0 -21 11 -4 28 7 7 8 12
3 12 -16 0 -31 -14 -38 -32 -4 -11 -17 -18 -32 -18 -16 0 -25 -6 -25 -15 0 -8
-5 -15 -11 -15 -6 0 -17 -6 -24 -14 -15 -15 -61 -10 -72 7 -4 6 0 8 11 4 14
-6 15 -3 6 13 -6 11 -15 20 -20 20 -6 0 -10 5 -10 11 0 5 5 7 12 3 7 -5 9 -2
5 9 -3 9 -3 18 1 20 4 2 2 2 -5 1 -71 -17 -81 -16 -85 7 -2 12 -10 24 -18 27
-12 4 -13 2 -2 -9 19 -20 15 -27 -14 -21 -18 3 -22 8 -15 15 8 8 6 16 -5 28
-12 14 -13 22 -4 38 16 32 6 39 -46 33 -35 -4 -45 -2 -39 7 4 7 13 10 21 7 8
-3 21 -3 30 1 26 10 -5 23 -40 16 -21 -4 -27 -3 -22 5 4 7 3 12 -3 12 -5 0
-11 -6 -13 -12 -3 -8 -12 -2 -22 14 -15 22 -23 26 -47 21 -20 -4 -35 0 -47 10
-9 8 -42 25 -72 37 -30 12 -71 31 -90 43 -19 12 -35 20 -35 18 0 -2 -10 2 -22
10 -13 7 -23 20 -23 28 0 25 -55 68 -96 74 -47 8 -61 0 -65 -33 -5 -31 -25
-28 -21 3 1 15 -1 18 -6 9 -12 -18 -22 -4 -58 83 -15 39 -33 73 -39 77 -6 5
-6 8 0 9 6 0 1 4 -10 9 -25 11 -75 12 -76 3z m1278 -325 c-3 -8 -6 -5 -6 6 -1
11 2 17 5 13 3 -3 4 -12 1 -19z m-67 -97 c0 -5 -7 -11 -15 -15 -15 -5 -20 5
-8 17 9 10 23 9 23 -2z m-460 -75 c0 -3 -4 -8 -10 -11 -5 -3 -10 -1 -10 4 0 6
5 11 10 11 6 0 10 -2 10 -4z m90 -30 c0 -3 -4 -8 -10 -11 -5 -3 -10 -1 -10 4
0 6 5 11 10 11 6 0 10 -2 10 -4z m537 -28 c-3 -7 -5 -2 -5 12 0 14 2 19 5 13
2 -7 2 -19 0 -25z m-966 -44 c7 -17 8 -17 8 -1 1 24 21 22 21 -3 0 -14 5 -18
18 -13 13 5 14 3 6 -7 -11 -11 -34 -14 -76 -9 -10 1 -20 11 -24 21 -3 10 -10
18 -15 18 -5 0 -9 4 -9 9 0 18 63 5 71 -15z m35 -72 c-10 -2 -22 0 -28 6 -6 6
0 7 19 4 21 -5 23 -7 9 -10z m974 -152 c0 -5 -2 -10 -4 -10 -3 0 -8 5 -11 10
-3 6 -1 10 4 10 6 0 11 -4 11 -10z m-795 -50 c-3 -5 -10 -10 -16 -10 -5 0 -9
5 -9 10 0 6 7 10 16 10 8 0 12 -4 9 -10z m117 -64 c4 3 19 7 35 9 28 3 40 -5
91 -57 15 -16 32 -28 39 -28 7 0 13 -8 13 -17 0 -15 2 -16 10 -3 7 11 11 9 19
-13 6 -15 15 -27 21 -27 5 0 10 -9 10 -20 0 -11 6 -23 13 -26 8 -3 14 -12 14
-20 0 -8 -6 -13 -14 -10 -7 3 -13 1 -13 -4 0 -14 38 -50 53 -50 21 -1 47 -26
47 -48 0 -11 7 -22 15 -26 9 -3 12 -12 9 -23 -5 -15 -4 -15 5 -3 14 20 19 12
27 -49 6 -48 5 -54 -9 -48 -9 3 -23 0 -31 -8 -19 -19 -23 -19 -48 5 -12 11
-35 20 -50 20 -16 0 -27 4 -24 9 3 4 -5 6 -18 4 -25 -5 -42 10 -31 27 5 8 11
8 20 0 8 -7 15 -7 19 -1 4 5 2 12 -4 16 -15 9 -12 25 5 25 8 0 15 5 15 11 0 5
-5 7 -10 4 -6 -4 -17 -1 -25 5 -11 9 -15 9 -15 1 0 -6 -4 -11 -8 -11 -4 0 -8
9 -8 20 0 13 5 19 13 15 19 -7 53 31 53 58 0 17 -2 19 -9 8 -7 -11 -11 -8 -14
15 -3 21 -4 19 -3 -8 1 -21 1 -38 1 -38 0 0 -15 -4 -33 -9 -17 -5 -32 -6 -32
-1 0 5 10 10 23 12 17 2 23 11 25 37 2 21 0 31 -7 26 -6 -3 -11 0 -11 7 0 10
-3 9 -9 -1 -8 -12 -15 -13 -35 -3 -17 7 -35 8 -58 1 -18 -5 -49 -6 -68 -2 -19
4 -41 6 -47 5 -34 -7 -89 19 -110 52 -14 21 -19 38 -13 41 6 4 8 10 5 15 -3 5
-1 11 4 15 12 7 41 64 41 81 0 19 72 34 91 17 9 -7 18 -10 21 -7z m-282 -231
c0 -8 -7 -15 -15 -15 -26 0 -18 20 13 29 1 1 2 -6 2 -14z m-43 -27 c-3 -7 -5
-2 -5 12 0 14 2 19 5 13 2 -7 2 -19 0 -25z m1867 -64 c4 -9 4 -19 1 -22 -3 -3
-5 0 -5 7 0 7 -4 9 -10 6 -5 -3 -10 1 -10 9 0 21 16 20 24 0z m-6 -55 c-3 -8
-7 -3 -11 10 -4 17 -3 21 5 13 5 -5 8 -16 6 -23z m-1811 -545 c-3 -3 -12 -4
-19 -1 -8 3 -5 6 6 6 11 1 17 -2 13 -5z m-12 -35 c-5 -13 -3 -19 3 -15 5 3 12
0 15 -7 3 -8 -1 -14 -9 -14 -16 0 -25 22 -18 42 9 23 16 18 9 -6z m105 -201
c0 -4 -4 -8 -9 -8 -6 0 -12 4 -15 8 -3 5 1 9 9 9 8 0 15 -4 15 -9z m1366 -106
c16 -11 23 -37 14 -53 -7 -10 -11 -8 -20 11 -10 23 -10 23 -6 2 4 -20 1 -22
-30 -20 -18 2 -34 6 -34 11 0 26 2 30 10 12 8 -21 9 -21 25 30 5 16 23 19 41
7z m-72 -88 c4 -10 1 -14 -6 -12 -15 5 -23 28 -10 28 5 0 13 -7 16 -16z m1146
-34 c0 -5 -5 -10 -11 -10 -5 0 -7 5 -4 10 3 6 8 10 11 10 2 0 4 -4 4 -10z
m-170 -280 c0 -5 -6 -7 -14 -4 -8 3 -23 1 -33 -4 -10 -5 -24 -7 -30 -5 -26 9
-12 18 32 20 25 1 45 -3 45 -7z"/>
<path d="M1485 2710 c-3 -5 -1 -10 4 -10 6 0 11 5 11 10 0 6 -2 10 -4 10 -3 0
-8 -4 -11 -10z"/>
<path d="M1385 2690 c3 -5 8 -10 11 -10 2 0 4 5 4 10 0 6 -5 10 -11 10 -5 0
-7 -4 -4 -10z"/>
<path d="M120 3990 c0 -15 7 -20 26 -20 14 0 23 4 19 10 -3 6 -1 10 4 10 6 0
11 5 11 10 0 6 -13 10 -30 10 -23 0 -30 -4 -30 -20z"/>
<path d="M908 3953 c7 -3 16 -2 19 1 4 3 -2 6 -13 5 -11 0 -14 -3 -6 -6z"/>
<path d="M291 3941 c-8 -6 -9 -11 -3 -15 6 -3 14 -1 17 5 9 14 2 20 -14 10z"/>
<path d="M955 3930 c-3 -6 1 -7 9 -4 18 7 21 14 7 14 -6 0 -13 -4 -16 -10z"/>
<path d="M3198 3873 c-9 -12 -13 -35 -12 -65 2 -26 -1 -50 -7 -53 -18 -12 3
-25 39 -24 22 0 31 3 22 7 -19 9 -22 42 -3 42 8 0 12 4 9 9 -4 5 -1 11 6 13
19 7 1 58 -21 58 -11 0 -22 -6 -24 -12 -4 -8 -6 -7 -6 4 -1 9 5 18 12 21 6 2
9 7 6 11 -3 3 -12 -2 -21 -11z"/>
<path d="M1591 3834 c0 -11 3 -14 6 -6 3 7 2 16 -1 19 -3 4 -6 -2 -5 -13z"/>
<path d="M2260 3790 c0 -5 5 -10 10 -10 6 0 10 5 10 10 0 6 -4 10 -10 10 -5 0
-10 -4 -10 -10z"/>
<path d="M1542 3776 c-19 -30 -3 -57 18 -31 7 8 9 15 5 15 -4 0 -2 6 4 13 8
10 7 14 -5 14 -8 0 -18 -5 -22 -11z m14 -11 c-1 -8 -5 -17 -8 -21 -5 -4 -4 16
1 34 3 9 9 -1 7 -13z"/>
<path d="M1760 3760 c0 -5 5 -10 10 -10 6 0 10 5 10 10 0 6 -4 10 -10 10 -5 0
-10 -4 -10 -10z"/>
<path d="M90 3700 c0 -5 6 -10 14 -10 8 0 18 5 21 10 3 6 -3 10 -14 10 -12 0
-21 -4 -21 -10z"/>
<path d="M305 3700 c-3 -5 -1 -10 4 -10 6 0 11 5 11 10 0 6 -2 10 -4 10 -3 0
-8 -4 -11 -10z"/>
<path d="M2259 3700 c-1 -8 -1 -19 0 -24 1 -5 -4 -13 -11 -17 -7 -5 -8 -9 -3
-9 6 0 11 -10 12 -22 2 -21 1 -22 -11 -5 -12 16 -14 16 -20 2 -4 -11 -2 -14 6
-9 8 5 9 2 4 -12 -16 -38 -18 -54 -7 -54 6 0 11 -4 11 -10 0 -5 -7 -10 -17
-10 -9 0 -14 -2 -11 -5 3 -4 17 -3 32 1 38 9 33 41 -6 35 -4 0 -5 6 -1 14 4
12 9 13 19 4 9 -7 18 -7 31 0 10 6 13 11 5 11 -9 0 -10 5 -2 19 15 28 12 51
-6 51 -8 0 -12 4 -9 10 3 5 1 18 -4 27 -8 15 -11 15 -12 3z"/>
<path d="M1206 3638 c3 -4 9 -8 15 -8 5 0 9 4 9 8 0 5 -7 9 -15 9 -8 0 -12 -4
-9 -9z"/>
<path d="M1648 3633 c7 -3 16 -2 19 1 4 3 -2 6 -13 5 -11 0 -14 -3 -6 -6z"/>
<path d="M1307 3616 c-3 -6 -5 -15 -6 -21 -1 -5 -9 -20 -17 -33 -15 -23 -12
-42 7 -42 6 0 8 9 4 19 -5 16 0 20 27 23 37 3 52 33 21 41 -17 4 -17 5 0 6 9
0 17 5 17 10 0 13 -48 10 -53 -3z"/>
<path d="M3380 3621 c0 -6 5 -13 10 -16 6 -3 10 1 10 9 0 9 -4 16 -10 16 -5 0
-10 -4 -10 -9z"/>
<path d="M1296 3495 c4 -8 8 -15 10 -15 2 0 4 7 4 15 0 8 -4 15 -10 15 -5 0
-7 -7 -4 -15z"/>
<path d="M1996 3489 c3 -5 12 -9 21 -9 19 0 9 13 -12 16 -8 1 -13 -2 -9 -7z"/>
<path d="M1468 3483 c6 -2 18 -2 25 0 6 3 1 5 -13 5 -14 0 -19 -2 -12 -5z"/>
<path d="M1420 3458 c0 -11 31 -10 50 2 10 6 5 9 -18 8 -18 -1 -32 -5 -32 -10z"/>
<path d="M1695 3440 c3 -5 8 -10 11 -10 2 0 4 5 4 10 0 6 -5 10 -11 10 -5 0
-7 -4 -4 -10z"/>
<path d="M20 3370 c0 -5 6 -10 14 -10 8 0 18 5 21 10 3 6 -3 10 -14 10 -12 0
-21 -4 -21 -10z"/>
<path d="M2240 3269 c0 -5 5 -7 10 -4 6 3 10 8 10 11 0 2 -4 4 -10 4 -5 0 -10
-5 -10 -11z"/>
<path d="M183 3223 c-20 -3 -33 -10 -33 -19 0 -8 4 -14 10 -14 5 0 7 -8 3 -17
-5 -17 -5 -17 8 -2 14 17 78 34 114 30 17 -1 16 1 -5 13 -25 15 -37 16 -97 9z"/>
<path d="M88 3203 c7 -3 16 -2 19 1 4 3 -2 6 -13 5 -11 0 -14 -3 -6 -6z"/>
<path d="M165 3070 c-3 -5 -1 -10 4 -10 6 0 11 5 11 10 0 6 -2 10 -4 10 -3 0
-8 -4 -11 -10z"/>
<path d="M24 3049 c-4 -7 -2 -15 5 -17 9 -3 9 -7 0 -18 -6 -8 -8 -14 -3 -14
12 1 49 29 43 33 -2 1 -11 8 -21 15 -13 10 -18 10 -24 1z"/>
<path d="M370 3030 c0 -5 5 -10 10 -10 6 0 10 5 10 10 0 6 -4 10 -10 10 -5 0
-10 -4 -10 -10z"/>
<path d="M2642 2940 c0 -14 2 -19 5 -12 2 6 2 18 0 25 -3 6 -5 1 -5 -13z"/>
<path d="M280 2775 c0 -8 5 -15 10 -15 6 0 10 7 10 15 0 8 -4 15 -10 15 -5 0
-10 -7 -10 -15z"/>
<path d="M310 2755 c0 -9 6 -12 15 -9 8 4 12 10 9 15 -8 14 -24 10 -24 -6z"/>
<path d="M30 2750 c0 -13 28 -25 38 -16 3 4 0 11 -8 16 -20 13 -30 12 -30 0z"/>
<path d="M522 2742 c-30 -9 -33 -26 -5 -30 14 -2 26 4 33 17 11 22 9 23 -28
13z"/>
<path d="M545 2670 c-3 -5 -2 -10 4 -10 5 0 13 5 16 10 3 6 2 10 -4 10 -5 0
-13 -4 -16 -10z"/>
<path d="M561 2629 c-13 -5 -21 -12 -18 -15 9 -9 77 5 77 16 0 12 -27 12 -59
-1z"/>
<path d="M132 2615 c-10 -12 -10 -15 1 -15 8 0 20 7 27 15 17 21 -10 20 -28 0z"/>
<path d="M91 2568 c-1 -20 24 -24 35 -6 5 7 2 9 -9 5 -9 -3 -18 -1 -21 6 -2 7
-5 4 -5 -5z"/>
<path d="M657 2486 c-4 -10 0 -12 14 -9 22 6 26 23 5 23 -8 0 -16 -6 -19 -14z"/>
<path d="M85 2430 c-3 -5 -1 -10 4 -10 6 0 11 5 11 10 0 6 -2 10 -4 10 -3 0
-8 -4 -11 -10z"/>
<path d="M550 2330 l-25 -6 24 -8 c13 -5 27 -4 33 2 14 14 -2 20 -32 12z"/>
<path d="M4196 2285 c-3 -8 -1 -15 4 -15 6 0 10 7 10 15 0 8 -2 15 -4 15 -2 0
-6 -7 -10 -15z"/>
<path d="M4156 2201 c-3 -40 -2 -81 4 -96 7 -19 7 -39 -1 -66 -10 -32 -9 -46
4 -79 14 -36 14 -49 3 -104 -8 -34 -19 -73 -26 -85 -6 -12 -9 -29 -6 -37 3 -8
1 -14 -5 -14 -6 0 -7 -4 -4 -10 3 -5 2 -10 -2 -10 -5 0 -14 -20 -21 -44 -6
-24 -18 -51 -27 -59 -8 -9 -15 -20 -15 -25 0 -5 -6 -15 -13 -21 -8 -6 -20 -29
-27 -50 -7 -22 -19 -42 -26 -45 -8 -3 -14 -10 -14 -16 0 -15 -72 -83 -103 -97
-15 -7 -32 -24 -37 -37 -5 -13 -18 -27 -29 -31 -11 -3 -23 -15 -26 -26 -4 -11
-9 -18 -12 -15 -7 6 -33 -19 -33 -32 0 -5 -7 -15 -15 -22 -18 -15 -16 -70 2
-77 7 -3 13 -12 13 -20 0 -7 9 -33 20 -55 11 -23 21 -51 21 -62 1 -17 2 -18 6
-3 7 27 33 21 33 -8 0 -14 4 -25 10 -25 5 0 9 -3 9 -7 -4 -25 2 -43 13 -37 8
5 9 2 4 -12 -13 -32 -13 -48 -1 -79 12 -30 27 -155 19 -155 -3 0 -13 18 -23
40 -23 52 -32 41 -25 -29 4 -41 3 -52 -5 -41 -6 8 -8 24 -5 35 4 16 2 15 -9
-4 l-15 -24 -7 22 c-4 12 -9 21 -11 18 -3 -2 0 -16 5 -31 7 -17 7 -26 1 -26
-6 0 -10 8 -10 17 0 9 -3 14 -6 11 -7 -8 -12 -35 -13 -74 -1 -24 -5 -31 -18
-30 -10 0 -21 6 -25 11 -5 6 -8 5 -8 -2 0 -7 -6 -13 -14 -13 -7 0 -16 -9 -19
-20 -5 -20 -27 -28 -27 -10 0 6 5 10 11 10 6 0 9 6 6 13 -3 7 -1 33 4 58 6 24
12 58 14 74 2 17 14 60 28 97 19 51 23 75 17 105 -10 52 -38 103 -56 103 -9 0
-14 9 -13 22 4 48 -2 58 -47 79 -41 18 -50 19 -73 8 -14 -7 -31 -13 -37 -14
-6 0 -19 -7 -29 -15 -9 -8 -24 -15 -32 -16 -8 -2 -22 -9 -31 -17 -10 -8 -33
-17 -54 -21 -20 -4 -39 -13 -42 -22 -3 -8 -10 -12 -16 -9 -5 3 -10 2 -10 -4 0
-5 6 -12 13 -15 8 -4 7 -5 -3 -4 -29 3 -100 -14 -100 -24 0 -6 -7 -8 -15 -4
-8 3 -15 1 -15 -4 0 -6 -6 -10 -13 -10 -8 0 -22 -9 -32 -20 -21 -23 -44 -28
-25 -5 9 11 7 19 -10 37 -16 16 -24 19 -27 11 -3 -7 -12 -13 -20 -13 -10 0
-14 -6 -10 -20 3 -11 1 -20 -4 -20 -5 0 -11 -11 -15 -25 -6 -25 -18 -26 -20
-2 -2 30 -27 78 -39 73 -7 -2 -17 0 -23 6 -28 28 -92 10 -92 -26 0 -20 -7 -20
-26 -2 -12 13 -12 16 2 24 12 7 13 11 5 16 -7 4 -18 2 -26 -4 -12 -10 -15 -10
-15 1 0 12 -2 12 -9 0 -7 -11 -9 -11 -13 0 -4 12 -8 11 -23 -1 -10 -8 -16 -10
-12 -3 9 15 -14 23 -36 11 -9 -5 -22 -6 -27 -3 -6 3 -10 0 -10 -7 0 -9 -3 -10
-8 -2 -10 15 -44 9 -58 -11 -8 -10 -13 -12 -16 -5 -2 7 -14 3 -31 -10 -25 -20
-27 -20 -27 -3 -1 17 -1 17 -11 0 -6 -9 -15 -15 -20 -11 -6 3 -13 -3 -16 -15
-4 -16 -9 -19 -21 -12 -11 6 -20 4 -28 -7 -8 -11 -28 -16 -73 -16 -45 0 -61
-4 -61 -14 0 -10 -6 -12 -17 -7 -10 5 -26 8 -35 9 -10 0 -18 5 -18 10 0 6 -6
1 -14 -10 -12 -17 -26 -21 -78 -21 -51 -1 -65 -5 -79 -22 -14 -17 -18 -18 -23
-6 -4 12 -20 14 -76 11 -39 -2 -73 -6 -76 -9 -3 -3 -12 -3 -20 0 -7 3 -27 0
-44 -6 -18 -6 -28 -6 -25 -1 4 6 1 10 -4 10 -6 0 -11 -4 -11 -10 0 -5 -5 -10
-11 -10 -5 0 -7 5 -3 11 5 8 -4 10 -29 7 -20 -2 -33 0 -31 4 6 10 1 10 -167
12 -95 1 -141 5 -152 14 -11 9 -17 10 -22 2 -5 -8 -10 -8 -20 0 -10 9 -20 7
-38 -5 -17 -11 -27 -13 -32 -6 -3 6 1 11 9 11 9 0 16 5 16 10 0 6 -18 10 -39
10 -22 0 -41 5 -43 12 -2 6 -13 12 -24 12 -11 1 -24 5 -29 8 -6 3 -28 6 -50 6
-62 0 -64 0 -58 23 5 19 2 21 -28 16 -19 -2 -45 -9 -57 -16 -55 -28 -63 -31
-81 -31 -11 0 -23 -5 -26 -10 -3 -6 -19 -10 -36 -10 -21 0 -29 -5 -30 -17 0
-15 -2 -15 -9 2 -7 16 -9 16 -9 4 -1 -9 -8 -19 -16 -23 -8 -3 -12 -12 -9 -21
8 -19 -25 -33 -36 -15 -5 8 -10 9 -14 1 -9 -13 3 -81 14 -81 5 0 -2 -22 -15
-48 -13 -27 -25 -61 -28 -78 -3 -16 -12 -51 -22 -77 -18 -55 -28 -157 -14
-157 5 0 9 7 9 15 0 8 7 15 15 15 21 0 19 -13 -9 -43 -14 -15 -27 -36 -31 -47
-3 -11 -12 -20 -20 -20 -14 0 -28 -27 -17 -33 14 -9 57 1 55 12 -2 6 4 11 12
11 8 0 15 4 15 9 0 15 33 22 42 9 5 -8 8 0 8 23 0 19 5 40 10 45 6 6 13 27 15
48 6 49 46 117 65 113 19 -3 15 -53 -6 -74 -8 -8 -14 -22 -14 -32 0 -9 -6 -23
-12 -29 -10 -10 -10 -15 1 -21 11 -7 10 -15 -6 -42 -17 -28 -21 -50 -20 -122
0 -60 -3 -91 -12 -100 -11 -9 -14 -9 -18 1 -3 6 -9 12 -14 12 -6 0 -7 -5 -3
-12 5 -8 2 -9 -9 -5 -10 3 -17 2 -17 -3 0 -6 7 -10 15 -10 9 0 18 -6 21 -14 4
-11 12 -13 30 -6 15 6 24 6 24 0 0 -6 11 -10 25 -10 14 0 25 5 25 10 0 6 -5
10 -11 10 -5 0 -7 5 -4 10 4 7 14 3 25 -10 18 -20 70 -28 70 -10 0 6 -4 10
-10 10 -5 0 -10 7 -10 16 0 10 6 14 15 10 10 -4 15 1 15 14 0 11 5 20 11 20 7
0 8 -7 4 -18 -10 -26 -13 -62 -5 -62 4 0 11 12 14 26 10 38 27 51 56 44 25 -6
29 -19 15 -52 -5 -13 -2 -18 9 -18 9 0 16 6 16 14 0 17 18 31 27 22 3 -3 0
-12 -7 -21 -11 -13 -9 -15 14 -15 24 0 27 4 24 28 -2 19 -9 27 -23 27 -20 -1
-35 12 -35 30 0 6 4 4 8 -3 11 -17 52 22 52 51 1 20 3 19 27 -11 25 -32 26
-32 43 -12 15 17 19 18 24 5 3 -8 1 -15 -4 -15 -6 0 -10 -9 -10 -20 0 -27 -10
-25 -40 7 l-25 26 -3 -27 c-4 -34 -3 -35 42 -41 27 -4 36 -1 36 10 0 8 7 15
15 15 17 0 21 -35 5 -45 -5 -3 -19 -1 -30 5 -15 8 -20 8 -20 -1 0 -7 -9 -9
-25 -5 -19 5 -23 3 -19 -8 4 -11 25 -14 82 -14 42 0 69 2 60 5 -21 5 -24 29
-5 36 17 5 47 -3 47 -14 0 -5 -4 -9 -10 -9 -5 0 -10 -4 -10 -10 0 -5 13 -10
29 -10 29 0 30 2 25 37 l-5 38 18 -35 c19 -36 55 -50 91 -34 10 4 21 6 25 5
42 -9 87 -9 87 -1 0 5 9 10 20 10 11 0 20 -5 20 -10 0 -7 29 -10 75 -9 56 1
75 5 75 15 0 18 14 18 30 -1 16 -19 200 -22 200 -3 0 9 3 9 12 0 17 -17 414
-17 421 1 4 9 6 9 6 0 1 -18 781 -19 799 -1 9 9 12 9 12 0 0 -9 81 -12 335
-12 291 0 335 2 335 15 0 8 6 14 13 13 7 -2 11 5 9 16 -3 16 3 14 33 -12 34
-31 39 -32 125 -32 91 0 106 7 70 33 -23 16 -42 61 -34 82 4 8 0 22 -7 31 -11
14 -11 18 4 29 16 12 16 15 -3 60 -26 61 -21 78 13 41 29 -32 38 -16 12 22
-14 19 -14 21 -1 16 8 -3 20 -20 25 -37 6 -18 22 -44 36 -59 14 -15 25 -33 25
-40 0 -10 2 -10 8 -1 10 16 102 28 102 13 0 -5 9 -10 20 -10 25 0 26 16 3 29
-15 9 -16 10 -2 11 9 0 19 -3 23 -7 3 -4 16 -8 28 -10 12 -2 28 -9 37 -16 12
-10 14 -9 8 6 -5 12 -1 17 12 17 10 0 21 7 25 15 4 11 -1 15 -19 15 -14 0 -25
4 -25 9 0 5 -7 17 -16 25 -14 15 -14 16 5 16 23 0 26 12 11 41 -12 22 -30 25
-30 5 0 -10 -10 -14 -31 -14 -27 1 -30 4 -26 27 5 24 4 25 -9 6 -12 -16 -14
-16 -14 -3 0 9 -9 19 -19 23 -24 7 -73 -4 -65 -16 12 -19 -7 -7 -40 25 -34 35
-38 60 -4 30 25 -24 51 -3 38 31 -6 16 -6 27 1 31 6 3 8 13 5 21 -5 11 -1 13
17 8 12 -3 17 -3 12 2 -14 11 -13 172 1 198 6 11 9 26 7 33 -3 7 0 19 7 27 6
8 9 19 5 24 -4 7 0 8 10 5 13 -5 15 -2 9 20 -4 18 -2 26 7 26 10 0 10 3 1 12
-16 16 -15 28 3 28 9 0 15 10 15 26 0 20 4 24 19 19 23 -7 39 13 17 21 -9 3
-16 12 -16 20 0 16 16 19 25 4 4 -6 15 -8 25 -5 14 5 17 2 13 -13 -4 -18 2
-19 101 -18 61 1 111 7 117 13 13 13 -27 63 -50 62 -12 0 -12 -2 -3 -6 10 -4
9 -9 -4 -24 -9 -10 -12 -19 -6 -19 6 0 12 6 15 13 2 6 8 9 12 5 13 -12 -6 -28
-34 -28 -19 0 -31 7 -38 23 -14 31 5 57 43 57 49 0 74 11 74 31 0 14 -9 21
-30 26 -21 4 -36 16 -47 37 -11 21 -18 26 -21 17 -3 -8 0 -17 7 -19 6 -2 11
-8 11 -13 0 -8 -66 -3 -81 7 -4 2 -10 -3 -13 -12 -8 -22 -8 -22 12 -27 13 -4
12 -5 -4 -6 -12 0 -25 -8 -28 -17 -3 -8 -2 -12 4 -9 6 3 20 -1 32 -10 22 -16
22 -16 -21 -11 -43 6 -71 20 -71 37 0 5 8 9 18 9 9 0 24 5 32 11 13 9 12 10
-2 5 -12 -3 -18 0 -18 9 0 8 -5 15 -11 15 -6 0 -1 9 12 20 13 10 18 19 12 20
-7 0 -12 3 -11 8 0 4 -1 14 -5 22 -13 34 -13 45 2 62 8 9 18 15 23 12 4 -3 5
2 2 10 -3 9 -1 16 5 16 6 0 11 -5 11 -12 0 -6 2 -9 5 -7 2 3 0 18 -4 35 -6 18
-10 22 -10 10 -1 -18 -2 -18 -21 -1 -27 25 -25 38 4 31 15 -4 26 -1 29 7 3 9
7 9 19 -1 12 -10 18 -9 28 3 9 11 17 12 30 5 10 -6 31 -10 46 -10 l27 0 -29
22 c-16 13 -35 22 -44 21 -9 -2 -10 0 -2 3 6 3 12 9 12 14 0 12 -41 -1 -46
-15 -3 -7 -14 -11 -25 -8 -10 3 -16 9 -13 14 3 5 -5 9 -18 10 -13 0 -18 3 -11
5 7 3 10 11 7 18 -6 17 58 15 79 -2 10 -9 17 -10 22 -2 8 12 52 13 59 1 3 -5
-2 -12 -11 -15 -14 -6 -13 -9 7 -31 13 -14 20 -31 17 -39 -4 -9 -1 -16 6 -16
9 0 13 27 15 95 2 76 -1 95 -12 95 -8 0 -28 14 -45 31 -20 19 -35 27 -43 22
-9 -5 -6 -9 10 -11 16 -3 22 -8 18 -19 -3 -8 -6 -17 -6 -19 0 -2 -14 -4 -31
-4 -26 0 -29 -3 -24 -19 5 -18 2 -20 -32 -17 -35 2 -38 4 -35 30 2 16 -1 25
-6 22 -15 -9 -20 26 -8 50 6 11 17 19 24 16 16 -5 16 15 0 21 -7 3 -2 6 12 7
14 1 19 4 13 7 -7 2 -13 16 -13 29 0 14 -7 27 -15 30 -8 4 -15 12 -15 20 0 8
-4 14 -9 14 -17 0 -21 32 -6 47 10 10 13 23 9 37 -8 25 -8 30 0 74 5 25 3 32
-9 32 -18 0 -20 16 -2 23 9 4 9 7 -1 15 -11 7 -10 11 1 20 23 19 13 88 -16
118 -14 14 -30 23 -35 20 -5 -3 -15 9 -22 27 -6 17 -17 43 -23 57 -6 14 -11
29 -11 33 -1 13 -30 27 -56 27 -15 0 -31 5 -37 11 -7 7 -12 -11 -17 -60z m251
-543 c-3 -8 -6 -5 -6 6 -1 11 2 17 5 13 3 -3 4 -12 1 -19z m135 -173 c19 5 27
2 32 -11 4 -10 1 -21 -6 -26 -19 -12 -28 -10 -28 6 0 7 -9 16 -20 19 -11 3
-20 11 -20 19 0 11 2 11 9 0 5 -8 17 -11 33 -7z m-102 -25 c0 -5 -7 -10 -16
-10 -8 0 -12 5 -9 10 3 6 10 10 16 10 5 0 9 -4 9 -10z m70 -6 c0 -2 -7 -4 -15
-4 -8 0 -15 4 -15 10 0 5 7 7 15 4 8 -4 15 -8 15 -10z m-83 -510 c-7 -7 -52
38 -61 61 -4 12 7 5 30 -19 20 -20 34 -39 31 -42z m18 48 c13 -8 13 -27 2 -39
-5 -4 -7 -2 -5 6 2 8 -8 20 -22 28 -22 11 -22 13 -5 13 11 0 25 -4 30 -8z
m-565 -178 c0 -8 -5 -12 -10 -9 -6 4 -8 11 -5 16 9 14 15 11 15 -7z m-2950
-108 c0 -13 -73 -77 -84 -73 -6 3 -20 -1 -29 -8 -16 -12 -16 -13 8 -19 28 -7
31 -15 12 -40 -11 -16 -15 -15 -47 14 l-35 32 55 48 c41 37 63 49 88 50 17 0
32 -2 32 -4z m1513 -60 c4 -10 1 -13 -8 -9 -8 3 -12 9 -9 14 7 12 11 11 17 -5z
m-1302 -33 c-8 -15 -10 -15 -11 -2 0 17 10 32 18 25 2 -3 -1 -13 -7 -23z
m2657 -64 c-3 -20 -5 -19 -9 9 -3 20 -2 29 4 23 5 -5 7 -19 5 -32z m-1689 -93
c-2 -30 -2 -30 -6 -3 -2 15 -9 27 -14 27 -5 0 -9 4 -9 10 0 5 7 7 15 4 9 -4
14 -18 14 -38z m105 25 c3 -5 -1 -14 -8 -20 -11 -9 -16 -9 -22 0 -4 8 -3 9 4
5 7 -4 12 -1 12 8 0 18 6 21 14 7z m-1037 -23 c-3 -8 -6 -5 -6 6 -1 11 2 17 5
13 3 -3 4 -12 1 -19z m2166 -37 c3 -13 -1 -21 -14 -24 -11 -3 -19 -1 -19 4 0
5 4 9 10 9 5 0 7 7 4 15 -4 8 -2 15 4 15 5 0 12 -9 15 -19z m-633 -63 c0 -5
-7 -3 -15 6 -8 8 -15 18 -15 22 0 3 7 1 15 -6 8 -7 15 -17 15 -22z m-410 -7
c5 -11 10 -26 10 -33 -1 -7 -8 0 -16 16 -13 22 -18 26 -25 15 -7 -11 -9 -10
-9 4 0 23 27 22 40 -2z m1721 -28 c13 -16 12 -17 -3 -4 -17 13 -22 21 -14 21
2 0 10 -8 17 -17z m179 -60 c0 -16 -14 -23 -29 -14 -8 5 -10 17 -5 35 6 25 7
25 20 9 7 -10 14 -23 14 -30z m-3000 -30 c0 -12 4 -24 9 -27 15 -10 0 -55 -16
-49 -8 3 -13 14 -10 24 3 11 1 22 -4 25 -5 3 -9 26 -9 52 1 46 1 46 15 22 8
-14 14 -35 15 -47z m3099 17 c6 0 11 -4 11 -10 0 -14 -8 -13 -41 7 -17 10 -29
26 -29 38 0 18 2 17 24 -7 13 -16 28 -28 35 -28z m-3186 -52 c33 -32 42 -35
33 -13 -3 9 0 15 9 15 27 0 15 -41 -15 -52 -24 -9 -63 10 -56 27 3 8 1 17 -4
20 -6 4 -10 18 -9 33 0 16 3 21 6 12 4 -8 20 -27 36 -42z m1082 41 c11 -17 -1
-21 -15 -4 -8 9 -8 15 -2 15 6 0 14 -5 17 -11z m865 5 c0 -3 -6 -12 -14 -20
-13 -12 -15 -12 -13 6 1 17 27 31 27 14z m-1470 -8 c0 -3 -4 -8 -10 -11 -5 -3
-10 -1 -10 4 0 6 5 11 10 11 6 0 10 -2 10 -4z m180 -10 c0 -3 -4 -8 -10 -11
-5 -3 -10 -1 -10 4 0 6 5 11 10 11 6 0 10 -2 10 -4z m-112 -24 c6 -18 -15 -14
-22 4 -4 10 -1 14 6 12 6 -2 14 -10 16 -16z m1202 14 c0 -3 -4 -8 -10 -11 -5
-3 -10 -1 -10 4 0 6 5 11 10 11 6 0 10 -2 10 -4z m207 -18 c-3 -8 -6 -5 -6 6
-1 11 2 17 5 13 3 -3 4 -12 1 -19z m92 -11 c0 -21 -1 -21 -9 -2 -12 28 -12 37
0 30 6 -3 10 -16 9 -28z m-849 2 c0 -6 -4 -7 -10 -4 -5 3 -10 11 -10 16 0 6 5
7 10 4 6 -3 10 -11 10 -16z m173 -39 c3 -11 2 -22 -3 -25 -13 -8 -31 21 -24
39 7 19 20 13 27 -14z m-1127 7 c4 -4 2 -7 -4 -7 -6 0 -12 -8 -14 -17 -3 -13
-6 -10 -9 8 -6 26 9 34 27 16z m1648 5 c3 -5 -1 -9 -9 -9 -8 0 -12 4 -9 9 3 4
7 8 9 8 2 0 6 -4 9 -8z m853 -14 c-3 -8 -6 -5 -6 6 -1 11 2 17 5 13 3 -3 4
-12 1 -19z m-427 -14 c0 -8 -4 -12 -10 -9 -5 3 -10 10 -10 16 0 5 5 9 10 9 6
0 10 -7 10 -16z m-1595 -23 c-3 -6 -11 -8 -17 -5 -6 4 -5 9 3 15 16 10 23 4
14 -10z m-869 -5 c8 -8 11 -17 6 -20 -4 -2 -13 4 -20 15 -14 22 -7 25 14 5z
m237 -1 c4 -8 2 -17 -3 -20 -6 -4 -10 3 -10 14 0 25 6 27 13 6z m187 11 c0 -3
-4 -8 -10 -11 -5 -3 -10 -1 -10 4 0 6 5 11 10 11 6 0 10 -2 10 -4z m90 -31 c0
-5 -5 -3 -10 5 -5 8 -10 20 -10 25 0 6 5 3 10 -5 5 -8 10 -19 10 -25z m2440
-28 c0 -21 -18 7 -25 38 l-7 30 16 -29 c9 -15 16 -33 16 -39z m29 18 c0 -5 -6
-1 -14 9 -8 10 -11 24 -8 29 6 10 21 -16 22 -38z m-2606 1 c-5 -7 -9 -5 -11 7
-2 9 -8 14 -14 11 -7 -4 -8 -2 -4 5 6 9 11 9 22 0 7 -6 11 -16 7 -23z m377 30
c0 -3 -4 -8 -10 -11 -5 -3 -10 -1 -10 4 0 6 5 11 10 11 6 0 10 -2 10 -4z
m2147 -18 c-3 -8 -6 -5 -6 6 -1 11 2 17 5 13 3 -3 4 -12 1 -19z m-2343 -4 c9
-24 7 -31 -9 -38 -11 -4 -15 2 -15 24 0 32 14 40 24 14z m46 -26 c0 -11 -5
-15 -14 -12 -8 3 -11 15 -8 30 3 19 7 22 13 12 5 -7 9 -21 9 -30z m-203 10
c-3 -8 -6 -5 -6 6 -1 11 2 17 5 13 3 -3 4 -12 1 -19z m323 6 c0 -8 -5 -12 -10
-9 -6 4 -8 11 -5 16 9 14 15 11 15 -7z m-283 -14 c1 -11 -2 -20 -8 -20 -5 0
-9 2 -9 4 0 2 -3 11 -6 20 -4 10 -1 16 8 16 7 0 14 -9 15 -20z m450 -5 c-7 -7
-16 -10 -21 -5 -12 12 2 30 19 24 11 -5 12 -9 2 -19z m871 2 c2 -12 -3 -17
-17 -17 -15 0 -21 6 -21 21 0 25 33 22 38 -4z m-1388 -28 c0 -5 -4 -9 -10 -9
-5 0 -10 7 -10 16 0 8 5 12 10 9 6 -3 10 -10 10 -16z m554 13 c3 -5 -1 -9 -9
-9 -8 0 -15 4 -15 9 0 4 4 8 9 8 6 0 12 -4 15 -8z m-34 -22 c0 -5 -2 -10 -4
-10 -3 0 -8 5 -11 10 -3 6 -1 10 4 10 6 0 11 -4 11 -10z"/>
<path d="M860 670 c-8 -5 -12 -11 -9 -14 2 -3 11 -1 19 4 8 5 12 11 9 14 -2 3
-11 1 -19 -4z"/>
<path d="M575 2210 c3 -5 8 -10 11 -10 2 0 4 5 4 10 0 6 -5 10 -11 10 -5 0 -7
-4 -4 -10z"/>
<path d="M888 2183 c7 -3 16 -2 19 1 4 3 -2 6 -13 5 -11 0 -14 -3 -6 -6z"/>
<path d="M46 2124 l-18 -26 23 13 c13 8 30 14 36 14 21 0 19 20 -2 22 -12 2
-28 -8 -39 -23z"/>
<path d="M398 2053 c7 -3 16 -2 19 1 4 3 -2 6 -13 5 -11 0 -14 -3 -6 -6z"/>
<path d="M3228 2013 c6 -2 18 -2 25 0 6 3 1 5 -13 5 -14 0 -19 -2 -12 -5z"/>
<path d="M3187 1980 c-12 -12 -15 -20 -8 -25 6 -3 9 -11 6 -16 -4 -5 0 -15 7
-23 11 -11 16 -11 27 1 7 8 10 21 7 29 -3 7 -1 14 5 14 6 0 7 5 4 10 -3 6 1
10 10 10 9 0 13 5 10 10 -10 16 -48 10 -68 -10z"/>
<path d="M348 1983 c7 -3 16 -2 19 1 4 3 -2 6 -13 5 -11 0 -14 -3 -6 -6z"/>
<path d="M871 1944 c0 -11 3 -14 6 -6 3 7 2 16 -1 19 -3 4 -6 -2 -5 -13z"/>
<path d="M2688 1943 c7 -3 16 -2 19 1 4 3 -2 6 -13 5 -11 0 -14 -3 -6 -6z"/>
<path d="M3220 1869 c0 -5 5 -7 10 -4 6 3 10 8 10 11 0 2 -4 4 -10 4 -5 0 -10
-5 -10 -11z"/>
<path d="M210 1836 c0 -17 23 -27 40 -16 10 6 8 11 -8 19 -27 14 -32 14 -32
-3z"/>
<path d="M240 1789 c0 -5 5 -7 10 -4 6 3 10 8 10 11 0 2 -4 4 -10 4 -5 0 -10
-5 -10 -11z"/>
<path d="M2830 1615 c0 -5 5 -17 10 -25 5 -8 10 -10 10 -5 0 6 -5 17 -10 25
-5 8 -10 11 -10 5z"/>
<path d="M1917 1558 c2 -5 -6 -9 -19 -9 -13 -1 -30 -2 -38 -3 -8 0 -18 4 -22
9 -4 6 -8 2 -8 -9 0 -12 -5 -16 -15 -12 -9 3 -15 0 -15 -9 0 -18 -16 -20 -23
-2 -5 11 -11 -17 -8 -35 0 -4 -6 -5 -14 -2 -23 9 -18 -10 9 -33 21 -19 27 -20
43 -8 10 8 23 15 30 15 6 0 37 24 68 53 50 47 53 52 31 52 -13 0 -22 -3 -19
-7z"/>
<path d="M4570 1561 c0 -5 7 -11 15 -15 9 -3 15 0 15 9 0 8 -7 15 -15 15 -8 0
-15 -4 -15 -9z"/>
<path d="M475 1540 c3 -5 8 -10 11 -10 2 0 4 5 4 10 0 6 -5 10 -11 10 -5 0 -7
-4 -4 -10z"/>
<path d="M3145 1500 c3 -5 8 -10 11 -10 2 0 4 5 4 10 0 6 -5 10 -11 10 -5 0
-7 -4 -4 -10z"/>
<path d="M160 1406 c0 -2 7 -7 16 -10 8 -3 12 -2 9 4 -6 10 -25 14 -25 6z"/>
<path d="M325 1400 c-3 -5 -1 -10 4 -10 6 0 11 5 11 10 0 6 -2 10 -4 10 -3 0
-8 -4 -11 -10z"/>
<path d="M110 1380 c0 -5 5 -10 10 -10 6 0 10 5 10 10 0 6 -4 10 -10 10 -5 0
-10 -4 -10 -10z"/>
<path d="M580 1323 c-8 -2 -21 -7 -29 -9 -11 -4 -10 -8 5 -19 16 -13 17 -16 4
-25 -10 -6 -11 -10 -2 -10 15 0 46 30 55 53 6 17 -4 20 -33 10z"/>
<path d="M4480 1320 c0 -5 5 -10 11 -10 5 0 7 5 4 10 -3 6 -8 10 -11 10 -2 0
-4 -4 -4 -10z"/>
<path d="M496 1301 c-4 -5 -2 -12 3 -15 5 -4 12 -2 15 3 4 5 2 12 -3 15 -5 4
-12 2 -15 -3z"/>
<path d="M4512 1271 c-10 -27 -9 -28 22 -25 25 3 28 2 14 -7 -10 -5 -18 -19
-18 -30 0 -11 -4 -18 -9 -14 -6 3 -9 -4 -8 -15 2 -26 27 -26 27 1 0 13 4 18
12 13 8 -5 9 -2 5 10 -4 10 -1 19 9 23 8 3 13 12 10 19 -3 8 1 14 9 14 8 0 15
7 15 15 0 17 -12 19 -26 5 -8 -8 -15 -6 -24 5 -18 22 -27 19 -38 -14z"/>
<path d="M3190 1240 c-9 -6 -10 -10 -3 -10 6 0 15 5 18 10 8 12 4 12 -15 0z"/>
<path d="M4462 1241 c2 -20 -4 -31 -17 -31 -8 0 -15 -5 -15 -11 0 -6 7 -9 15
-5 20 7 19 -4 -2 -20 -15 -11 -15 -13 -3 -13 20 1 59 17 43 18 -14 1 -12 36 2
48 4 5 5 2 1 -4 -5 -9 0 -13 13 -13 12 0 21 5 21 11 0 5 -5 7 -10 4 -6 -3 -13
0 -16 8 -5 13 -34 20 -32 8z"/>
<path d="M597 1214 c-4 -4 -7 -14 -7 -23 0 -11 3 -12 11 -4 6 6 10 16 7 23 -2
6 -7 8 -11 4z"/>
<path d="M340 1180 c-9 -6 -10 -10 -3 -10 6 0 15 5 18 10 8 12 4 12 -15 0z"/>
<path d="M635 1160 c-3 -5 -2 -10 4 -10 5 0 13 5 16 10 3 6 2 10 -4 10 -5 0
-13 -4 -16 -10z"/>
<path d="M4545 1150 c-7 -12 2 -30 16 -30 5 0 9 9 9 20 0 21 -15 27 -25 10z"/>
<path d="M622 1073 c-12 -22 -5 -43 14 -43 19 0 18 -16 -1 -24 -8 -3 -15 -10
-15 -16 0 -5 7 -10 15 -10 8 0 15 -4 15 -10 0 -5 -4 -10 -10 -10 -5 0 -10 -4
-10 -10 0 -23 20 -7 28 23 8 27 13 32 37 30 16 -1 34 2 41 8 20 16 -6 57 -41
64 -16 4 -38 9 -47 11 -10 3 -21 -3 -26 -13z"/>
<path d="M198 1033 c7 -3 16 -2 19 1 4 3 -2 6 -13 5 -11 0 -14 -3 -6 -6z"/>
<path d="M825 1014 c-16 -8 -37 -13 -46 -11 -13 4 -20 -6 -29 -39 -7 -24 -15
-44 -19 -44 -3 0 -7 -11 -7 -25 -1 -14 2 -23 6 -20 5 3 10 0 12 -6 3 -8 20 -6
58 8 30 11 72 23 93 27 21 4 35 11 33 15 -3 4 8 18 24 29 29 22 32 52 5 52 -7
0 -15 5 -17 10 -6 18 -81 21 -113 4z"/>
<path d="M58 1003 c7 -3 16 -2 19 1 4 3 -2 6 -13 5 -11 0 -14 -3 -6 -6z"/>
<path d="M683 985 c-10 -10 -9 -14 3 -19 22 -8 24 -8 24 8 0 21 -13 26 -27 11z"/>
<path d="M243 970 c-13 -5 -23 -12 -23 -15 0 -8 53 6 65 16 12 12 -13 11 -42
-1z"/>
<path d="M670 950 c0 -5 5 -10 10 -10 6 0 10 5 10 10 0 6 -4 10 -10 10 -5 0
-10 -4 -10 -10z"/>
<path d="M560 940 c0 -5 5 -10 11 -10 5 0 7 5 4 10 -3 6 -8 10 -11 10 -2 0 -4
-4 -4 -10z"/>
<path d="M325 920 c-35 -13 -48 -36 -35 -59 14 -27 37 -27 65 2 13 12 33 29
46 39 23 15 23 17 5 24 -10 4 -27 2 -37 -4 -9 -6 -19 -7 -21 -3 -2 5 -12 5
-23 1z"/>
<path d="M634 915 c25 -19 37 -19 30 0 -4 8 -16 15 -28 15 -21 -1 -21 -1 -2
-15z"/>
<path d="M4490 900 c0 -5 9 -10 20 -10 11 0 20 -5 20 -12 0 -6 3 -8 7 -4 5 4
-1 14 -11 22 -23 16 -36 18 -36 4z"/>
<path d="M135 890 c-16 -7 -17 -9 -3 -9 9 -1 20 4 23 9 7 11 7 11 -20 0z"/>
<path d="M4420 876 c0 -21 20 -30 33 -17 9 9 8 14 -3 21 -21 14 -30 12 -30 -4z"/>
<path d="M4570 860 c0 -18 -3 -19 -21 -9 -15 8 -19 8 -15 0 4 -6 2 -11 -3 -11
-6 0 -11 -10 -10 -22 0 -13 3 -17 6 -10 2 6 13 12 23 12 10 0 25 3 34 6 21 8
21 54 1 54 -8 0 -15 -9 -15 -20z"/>
<path d="M150 848 c-12 -22 -12 -22 6 -6 10 10 15 20 12 24 -4 3 -12 -5 -18
-18z"/>
<path d="M4349 863 c-1 -5 -1 -12 0 -16 1 -5 -8 -11 -19 -14 -21 -6 -27 -19
-9 -25 20 -7 -3 -40 -26 -36 -24 5 -31 -18 -7 -27 11 -4 12 -8 2 -20 -10 -12
-10 -15 2 -15 8 0 19 5 26 12 9 9 12 9 12 1 0 -7 9 -15 20 -18 14 -5 19 -12
15 -25 -4 -11 1 -20 11 -24 22 -9 33 2 14 14 -10 6 -11 10 -3 10 19 0 4 27
-18 33 -19 5 -27 27 -9 27 21 0 9 20 -12 21 -23 0 -23 0 1 10 23 9 24 10 5 31
-19 21 -19 21 8 14 15 -3 30 -2 33 4 10 16 38 12 31 -5 -3 -8 -1 -15 4 -15 19
0 10 24 -17 47 -25 22 -62 31 -64 16z"/>
<path d="M4470 840 c0 -5 5 -10 10 -10 6 0 10 5 10 10 0 6 -4 10 -10 10 -5 0
-10 -4 -10 -10z"/>
<path d="M630 824 c0 -8 5 -12 10 -9 6 4 8 11 5 16 -9 14 -15 11 -15 -7z"/>
<path d="M386 819 c3 -5 -7 -11 -21 -15 -14 -3 -25 -12 -25 -20 0 -8 -5 -14
-11 -14 -6 0 -9 -7 -5 -15 6 -17 -7 -19 -35 -5 -15 8 -19 7 -19 -4 0 -8 13
-16 32 -18 29 -5 39 1 78 42 25 26 54 50 65 53 11 2 1 4 -22 4 -23 0 -40 -4
-37 -8z"/>
<path d="M4463 805 c-6 -19 -5 -20 24 -29 15 -5 21 -3 19 6 -5 36 -32 50 -43
23z"/>
<path d="M278 799 c-2 -7 -18 -12 -36 -13 -34 -1 -42 -10 -18 -19 16 -6 76 13
76 25 0 13 -18 18 -22 7z"/>
<path d="M455 796 c-48 -28 -58 -55 -16 -41 19 6 48 42 39 50 -2 1 -12 -2 -23
-9z"/>
<path d="M4390 768 c1 -20 26 -48 42 -48 9 0 18 -9 21 -20 3 -13 14 -20 28
-20 22 0 22 1 5 13 -16 12 -17 15 -3 20 9 3 18 0 21 -9 3 -8 14 -14 24 -14 10
0 27 -7 38 -15 31 -23 35 -18 33 45 -2 50 -5 60 -18 58 -9 -2 -15 -11 -15 -20
1 -14 -2 -15 -17 -5 -10 6 -22 8 -26 4 -4 -5 -1 -12 7 -17 8 -5 11 -12 8 -16
-11 -10 -40 4 -33 16 3 6 -1 13 -10 17 -10 3 -20 0 -25 -6 -5 -10 -9 -9 -13 3
-5 12 -14 15 -33 10 -19 -5 -25 -4 -20 5 4 6 2 11 -3 11 -6 0 -11 -6 -11 -12z"/>
<path d="M222 728 c-7 -9 -6 -17 4 -26 12 -11 14 -9 14 13 0 28 -3 30 -18 13z"/>
<path d="M605 712 c-30 -30 -31 -38 -6 -45 20 -5 45 18 55 50 9 28 -19 25 -49
-5z"/>
<path d="M494 705 c-12 -12 -24 -30 -28 -40 -5 -13 -2 -16 11 -10 10 4 33 9
51 12 37 6 44 36 13 53 -24 12 -21 13 -47 -15z"/>
<path d="M325 700 c3 -5 11 -10 16 -10 6 0 7 5 4 10 -3 6 -11 10 -16 10 -6 0
-7 -4 -4 -10z"/>
<path d="M410 695 c0 -8 2 -15 4 -15 2 0 6 7 10 15 3 8 1 15 -4 15 -6 0 -10
-7 -10 -15z"/>
<path d="M190 684 c0 -8 5 -12 10 -9 6 4 8 11 5 16 -9 14 -15 11 -15 -7z"/>
<path d="M4419 688 c-6 -12 -3 -55 4 -51 5 3 7 14 4 24 -4 16 -2 17 15 8 15
-8 17 -13 8 -19 -17 -11 -3 -51 16 -43 17 6 18 20 2 26 -7 2 -6 3 2 2 8 -2 23
-6 33 -10 10 -4 17 -3 17 4 0 6 -8 11 -17 12 -11 0 -13 3 -5 6 7 3 -3 13 -25
24 -35 18 -51 23 -54 17z"/>
<path d="M7 669 c7 -7 15 -10 18 -7 3 3 -2 9 -12 12 -14 6 -15 5 -6 -5z"/>
<path d="M4303 668 c-13 -6 -23 -15 -23 -20 0 -4 -7 -8 -15 -8 -13 0 -14 -4
-4 -21 9 -17 18 -20 50 -17 21 2 39 2 39 0 0 -2 -13 -17 -29 -35 -33 -34 -32
-50 3 -41 45 11 61 11 74 1 7 -5 15 -7 19 -3 3 3 1 6 -6 6 -8 0 -9 5 -2 18 11
20 3 72 -11 72 -5 0 -6 5 -3 11 4 6 -4 9 -22 7 -24 -3 -28 0 -25 20 4 24 -9
27 -45 10z m91 -106 c3 -5 -1 -9 -9 -9 -8 0 -15 4 -15 9 0 4 4 8 9 8 6 0 12
-4 15 -8z"/>
<path d="M418 663 c-17 -4 -34 -33 -19 -33 4 0 18 9 31 20 23 20 21 22 -12 13z"/>
<path d="M571 653 c-1 -7 -8 -13 -16 -13 -8 0 -15 -4 -15 -10 0 -12 10 -13 29
-1 7 5 11 15 8 22 -4 10 -6 10 -6 2z"/>
<path d="M0 620 c0 -5 5 -10 11 -10 5 0 7 5 4 10 -3 6 -8 10 -11 10 -2 0 -4
-4 -4 -10z"/>
<path d="M500 586 c0 -9 5 -16 10 -16 6 0 10 4 10 9 0 6 -4 13 -10 16 -5 3
-10 -1 -10 -9z"/>
<path d="M190 580 c0 -5 5 -10 10 -10 6 0 10 5 10 10 0 6 -4 10 -10 10 -5 0
-10 -4 -10 -10z"/>
<path d="M370 580 c0 -5 7 -10 15 -10 8 0 15 5 15 10 0 6 -7 10 -15 10 -8 0
-15 -4 -15 -10z"/>
<path d="M4285 580 c4 -6 11 -8 16 -5 14 9 11 15 -7 15 -8 0 -12 -5 -9 -10z"/>
<path d="M4500 580 c0 -5 5 -10 11 -10 5 0 7 5 4 10 -3 6 -8 10 -11 10 -2 0
-4 -4 -4 -10z"/>
<path d="M40 570 c-12 -8 -10 -10 8 -10 13 0 20 4 17 10 -7 12 -6 12 -25 0z"/>
<path d="M4556 571 c-7 -11 22 -23 35 -15 5 3 9 9 9 15 0 12 -37 12 -44 0z"/>
<path d="M390 538 c0 -9 -6 -18 -12 -21 -10 -3 -10 -7 1 -20 13 -16 36 -14 26
3 -3 4 0 10 5 12 7 2 5 11 -4 23 -13 17 -15 18 -16 3z"/>
<path d="M518 543 c7 -3 16 -2 19 1 4 3 -2 6 -13 5 -11 0 -14 -3 -6 -6z"/>
<path d="M472 527 c-6 -7 -7 -19 -3 -26 6 -9 10 -5 13 13 6 30 5 31 -10 13z"/>
<path d="M4362 506 c-1 -21 2 -23 33 -20 33 2 49 -10 23 -18 -7 -3 -9 -12 -5
-22 5 -12 13 -16 23 -12 14 6 15 4 4 -10 -12 -13 -11 -17 1 -25 21 -13 57 -11
66 4 4 8 17 19 28 26 11 7 13 10 4 8 -9 -3 -31 -2 -50 3 -29 6 -31 8 -14 15
39 16 45 25 27 46 -20 23 -42 25 -42 3 0 -13 -6 -15 -27 -10 -16 4 -33 12 -38
19 -17 20 -31 17 -33 -7z"/>
<path d="M4520 515 c0 -9 5 -15 11 -13 6 2 11 8 11 13 0 5 -5 11 -11 13 -6 2
-11 -4 -11 -13z"/>
<path d="M335 510 c-3 -5 1 -10 9 -10 9 0 16 5 16 10 0 6 -4 10 -9 10 -6 0
-13 -4 -16 -10z"/>
<path d="M545 501 c-3 -5 -1 -12 5 -16 5 -3 10 1 10 9 0 18 -6 21 -15 7z"/>
<path d="M4265 500 c-3 -5 1 -10 9 -10 16 0 32 -37 21 -48 -4 -4 -10 -1 -12 6
-5 13 -43 17 -43 5 1 -26 22 -34 93 -36 82 -3 103 6 39 17 -32 5 -38 10 -38
28 1 16 -4 22 -15 20 -9 -1 -19 4 -23 13 -6 17 -22 20 -31 5z"/>
<path d="M360 466 c0 -2 7 -7 16 -10 8 -3 12 -2 9 4 -6 10 -25 14 -25 6z"/>
<path d="M4360 466 c0 -2 7 -7 16 -10 8 -3 12 -2 9 4 -6 10 -25 14 -25 6z"/>
<path d="M4565 440 c-3 -5 3 -10 14 -10 12 0 21 5 21 10 0 6 -6 10 -14 10 -8
0 -18 -4 -21 -10z"/>
<path d="M70 420 c-9 -6 -10 -10 -3 -10 6 0 15 5 18 10 8 12 4 12 -15 0z"/>
<path d="M450 410 c-12 -8 -11 -10 8 -10 12 0 22 5 22 10 0 13 -11 13 -30 0z"/>
<path d="M4515 390 c-3 -11 -3 -24 0 -30 3 -5 -2 -9 -12 -7 -10 1 -19 -2 -20
-8 -1 -5 9 -9 23 -8 13 1 24 -3 24 -9 0 -6 3 -9 6 -5 4 3 13 0 21 -8 8 -8 22
-15 31 -15 14 0 14 2 3 9 -11 7 -11 10 0 14 11 5 10 6 -1 5 -8 -2 -28 6 -43
16 -22 15 -27 24 -22 43 7 28 -1 31 -10 3z"/>
<path d="M36 391 c-4 -7 -5 -15 -2 -18 9 -9 19 4 14 18 -4 11 -6 11 -12 0z"/>
<path d="M4327 384 c-4 -4 -7 -14 -7 -23 0 -11 3 -12 11 -4 6 6 10 16 7 23 -2
6 -7 8 -11 4z"/>
<path d="M4356 375 c-3 -8 -1 -15 3 -15 5 0 11 7 15 15 3 8 1 15 -3 15 -5 0
-11 -7 -15 -15z"/>
<path d="M4550 372 c0 -9 7 -13 20 -9 10 3 21 0 24 -7 2 -6 5 -4 5 5 1 10 -9
19 -24 21 -18 4 -25 1 -25 -10z"/>
<path d="M366 355 c-9 -26 -7 -32 5 -12 6 10 9 21 6 23 -2 3 -7 -2 -11 -11z"/>
<path d="M310 349 c0 -5 7 -12 15 -15 22 -9 18 -27 -5 -21 -13 3 -20 0 -20 -9
0 -17 5 -17 31 -4 26 14 25 55 -1 57 -11 1 -20 -3 -20 -8z"/>
<path d="M200 331 c0 -6 4 -13 10 -16 6 -3 7 1 4 9 -7 18 -14 21 -14 7z"/>
<path d="M4425 330 c-8 -13 15 -24 27 -12 6 6 4 11 -6 15 -8 3 -18 2 -21 -3z"/>
<path d="M257 314 c-8 -9 21 -44 37 -44 6 0 4 6 -5 13 -9 7 -18 18 -20 25 -2
7 -8 10 -12 6z"/>
<path d="M120 294 c0 -8 5 -12 10 -9 6 3 10 10 10 16 0 5 -4 9 -10 9 -5 0 -10
-7 -10 -16z"/>
<path d="M432 293 c2 -11 13 -19 28 -20 14 -1 17 1 8 3 -10 3 -15 11 -11 20 3
9 -1 14 -12 14 -10 0 -15 -6 -13 -17z"/>
<path d="M4515 300 c3 -5 10 -10 16 -10 5 0 9 5 9 10 0 6 -7 10 -16 10 -8 0
-12 -4 -9 -10z"/>
<path d="M4455 290 c-3 -5 -2 -10 4 -10 5 0 13 5 16 10 3 6 2 10 -4 10 -5 0
-13 -4 -16 -10z"/>
<path d="M133 265 c-6 -18 1 -28 22 -31 8 -1 15 4 15 12 0 9 -4 12 -10 9 -6
-3 -7 1 -4 9 3 9 1 16 -5 16 -7 0 -14 -7 -18 -15z"/>
<path d="M4400 260 c0 -6 7 -10 15 -10 8 0 15 2 15 4 0 2 -7 6 -15 10 -8 3
-15 1 -15 -4z"/>
<path d="M4580 252 c0 -7 -7 -12 -15 -12 -8 0 -15 -4 -15 -10 0 -16 27 -11 34
6 4 9 4 19 1 22 -3 3 -5 0 -5 -6z"/>
<path d="M294 239 c-3 -6 -1 -16 5 -22 8 -8 11 -5 11 11 0 24 -5 28 -16 11z"/>
<path d="M4502 238 c5 -15 28 -23 28 -10 0 5 -7 13 -16 16 -10 4 -14 1 -12 -6z"/>
<path d="M427 206 c-4 -10 -1 -13 8 -9 8 3 12 9 9 14 -7 12 -11 11 -17 -5z"/>
<path d="M498 196 c-15 -8 -29 -12 -31 -10 -2 3 -12 -7 -21 -21 -16 -24 -16
-25 6 -22 13 1 26 10 30 20 4 9 14 17 23 17 8 0 15 5 15 11 0 5 5 7 10 4 6 -3
10 -1 10 4 0 14 -10 14 -42 -3z"/>
<path d="M85 190 c3 -5 8 -10 11 -10 2 0 4 5 4 10 0 6 -5 10 -11 10 -5 0 -7
-4 -4 -10z"/>
<path d="M631 183 c-1 -7 -9 -13 -18 -13 -13 0 -12 -4 7 -13 31 -17 33 -16 21
14 -5 13 -10 18 -10 12z"/>
<path d="M4197 172 c-7 -15 -6 -61 1 -66 5 -3 19 1 33 8 13 7 29 14 34 17 11
4 9 14 -5 39 -8 12 -9 11 -10 -7 0 -13 -5 -23 -11 -23 -5 0 -8 4 -5 8 2 4 -4
13 -14 20 -11 6 -21 8 -23 4z"/>
<path d="M661 134 c0 -11 3 -14 6 -6 3 7 2 16 -1 19 -3 4 -6 -2 -5 -13z"/>
<path d="M190 130 c0 -5 5 -10 10 -10 6 0 10 5 10 10 0 6 -4 10 -10 10 -5 0
-10 -4 -10 -10z"/>
<path d="M350 136 c0 -2 7 -7 16 -10 8 -3 12 -2 9 4 -6 10 -25 14 -25 6z"/>
<path d="M564 132 c4 -6 1 -14 -6 -18 -12 -8 12 -22 40 -23 25 -2 9 44 -17 47
-14 2 -21 0 -17 -6z"/>
<path d="M4530 126 c0 -8 14 -13 35 -14 19 -1 35 3 35 8 0 6 -3 11 -7 11 -49
7 -63 6 -63 -5z"/>
<path d="M4288 120 c-15 -4 -29 -5 -32 -2 -3 3 -6 -1 -6 -9 0 -11 9 -14 35
-11 21 3 35 10 35 18 0 8 -1 14 -2 13 -2 0 -15 -4 -30 -9z"/>
<path d="M4339 116 c8 -9 8 -15 2 -18 -6 -2 -7 -9 -1 -17 6 -11 12 -12 22 -4
7 6 21 12 30 14 13 3 15 8 7 19 -8 11 -12 12 -16 3 -7 -18 -23 -16 -23 2 0 8
-7 15 -16 15 -13 0 -14 -3 -5 -14z"/>
<path d="M4420 120 c0 -5 7 -10 16 -10 8 0 12 5 9 10 -3 6 -10 10 -16 10 -5 0
-9 -4 -9 -10z"/>
<path d="M240 94 c0 -8 5 -12 10 -9 6 4 8 11 5 16 -9 14 -15 11 -15 -7z"/>
<path d="M4497 95 c-4 -10 -1 -15 10 -15 9 0 25 -7 35 -17 10 -9 18 -12 18 -7
0 12 -20 41 -20 30 0 -5 -8 -1 -19 8 -16 15 -19 15 -24 1z"/>
<path d="M551 71 c-8 -6 -9 -11 -3 -15 6 -3 14 -1 17 5 9 14 2 20 -14 10z"/>
<path d="M606 65 c-3 -8 -1 -15 3 -15 5 0 11 7 15 15 3 8 1 15 -3 15 -5 0 -11
-7 -15 -15z"/>
<path d="M4274 58 c-10 -15 1 -19 26 -10 l24 9 -22 5 c-12 4 -25 2 -28 -4z"/>
<path d="M4172 14 c-12 -13 -9 -14 22 -12 27 2 33 5 24 15 -14 17 -30 16 -46
-3z"/>
<path d="M4530 21 c0 -5 5 -13 10 -16 6 -3 10 -2 10 4 0 5 -4 13 -10 16 -5 3
-10 2 -10 -4z"/>
<path d="M4130 10 c0 -5 5 -10 11 -10 5 0 7 5 4 10 -3 6 -8 10 -11 10 -2 0 -4
-4 -4 -10z"/>
<path d="M4425 10 c-4 -6 3 -10 14 -10 25 0 27 6 6 13 -8 4 -17 2 -20 -3z"/>
</g>
</svg>
